<svg xmlns="http://www.w3.org/2000/svg" xmlns:xlink="http://www.w3.org/1999/xlink" xmlns:lucid="lucid" width="1851.1" height="1126"><g transform="translate(-68.89630701940064 -54)" lucid:page-tab-id="TGBESg8VwqTD"><path d="M88.9 74H1900v1086H88.9z" stroke="#232f3e" stroke-width="2" fill-opacity="0"/><path d="M88.9 74h56v56h-56V74z" stroke="#fff" stroke-opacity="0" fill="#232f3e"/><path d="M107.12 99.87c-.04.48.04.87.16 1.34.13.4.3.7.5 1.08.04.1.08.2.08.33 0 .2-.12.36-.3.46l-.93.62c-.13.08-.25.13-.37.13-.17 0-.33-.06-.45-.2-.2-.2-.36-.43-.53-.7-.16-.25-.28-.53-.45-.86-1.1 1.37-2.63 2.1-4.4 2.06-1.14.06-2.13-.3-2.95-1.08-.78-.8-1.15-1.76-1.1-2.85-.05-1.23.4-2.28 1.35-3.08 1.06-.85 2.3-1.23 3.65-1.16.58 0 1.03.02 1.6.1.58.1 1.1.2 1.73.33v-1.1c.08-.88-.17-1.67-.7-2.37-.74-.56-1.56-.8-2.46-.7-.54 0-1.03.07-1.6.2-.58.13-1.03.3-1.6.5l-.5.2h-.25c-.2 0-.33-.16-.33-.45v-.75c0-.18.04-.34.12-.5.1-.16.23-.26.4-.33.66-.3 1.2-.5 1.9-.67.77-.2 1.47-.3 2.3-.28 1.47-.13 2.78.26 3.9 1.2.93 1.05 1.34 2.28 1.22 3.67zm-6.08 2.28c.58 0 1.07-.1 1.6-.28.58-.2 1.03-.5 1.44-.96.25-.27.4-.57.5-.93.12-.45.16-.84.16-1.3V98c-.53-.1-.95-.17-1.44-.2h-1.4c-.82-.08-1.56.12-2.2.58-.55.45-.8 1.04-.75 1.73-.04.62.12 1.16.53 1.6.45.38 1 .52 1.56.45zm12 1.6c-.2.02-.42-.03-.58-.15-.17-.17-.25-.36-.33-.6l-3.5-11.5-.1-.62c0-.24.1-.37.36-.37h1.46c.2 0 .37.04.58.15.16.18.25.37.3.6l2.5 9.96 2.37-9.93c0-.24.1-.44.3-.6.16-.12.37-.16.58-.14h1.2c.23-.02.4.02.6.14.17.18.25.36.3.6l2.33 9.94 2.56-10c.04-.2.16-.4.33-.58h-.02c.17-.1.37-.17.58-.14h1.4c.16 0 .32.1.36.3v.31s0 .2-.12.35l-3.6 11.53c-.05.22-.14.42-.3.6-.2.1-.37.14-.57.13h-1.28c-.24.04-.45-.02-.6-.15-.18-.16-.26-.36-.3-.6l-2.3-9.6-2.3 9.6c-.04.24-.12.44-.3.6-.2.13-.4.2-.6.16zm19.2.38c-.8 0-1.5-.07-2.3-.25-.65-.13-1.14-.3-1.7-.6-.22-.1-.38-.23-.47-.42-.08-.14-.12-.28-.12-.43v-.75c0-.3.13-.46.33-.46h.3l.36.16c.57.23 1.02.4 1.6.5.6.14 1.15.2 1.8.2.8.05 1.48-.1 2.18-.5.5-.3.78-.8.74-1.4.04-.4-.12-.76-.37-1.04-.46-.4-.95-.65-1.53-.8l-2.17-.67c-.95-.26-1.73-.74-2.4-1.5-.48-.66-.72-1.36-.72-2.2 0-.58.12-1.07.4-1.6.3-.5.62-.88 1.07-1.2.5-.4 1-.62 1.6-.8.66-.17 1.2-.25 1.9-.24.32-.03.6-.03.98 0l1 .16.8.23.66.25c.16.1.28.22.45.38.08.15.12.3.12.5v.7c0 .3-.13.47-.37.47-.2-.03-.37-.08-.58-.18-.94-.43-1.8-.6-2.87-.58-.7-.04-1.3.1-1.97.4-.5.3-.74.8-.7 1.36 0 .4.12.76.45 1.05.5.4 1 .65 1.6.82l2.1.67c.94.24 1.68.7 2.3 1.44.5.64.7 1.3.7 2.1 0 .63-.13 1.17-.38 1.73-.28.55-.6.95-1.1 1.32-.5.4-1 .66-1.6.84-.74.23-1.4.33-2.14.34zM135 111.48c-5.6 3.82-11.36 5.58-18.15 5.56-8.55.05-15.83-2.74-22.16-8.45-.5-.42 0-1 .48-.68 7.07 4.05 14.02 5.9 22.2 5.9 6.1-.04 11.28-1.1 16.93-3.47.82-.35 1.52.55.7 1.14z" stroke="#fff" stroke-opacity="0" fill="#fff"/><path d="M137.06 109.2c-.65-.8-4.16-.38-5.75-.2-.47 0-.53-.36-.1-.67 2.8-1.97 7.4-1.4 8-.73.6.67-.15 5.28-2.78 7.48-.4.34-.78.15-.6-.28.54-1.52 1.86-4.83 1.24-5.6z" stroke="#fff" stroke-opacity="0" fill="#fff"/><use xlink:href="#a" transform="matrix(1,0,0,1,159.89630701940064,94) translate(0 19.555555555555557)"/><use xlink:href="#b" transform="matrix(1,0,0,1,159.89630701940064,94) translate(62.33333333333333 19.555555555555557)"/><path d="M453.15 82a8 8 0 0 1 8-8h836.75a8 8 0 0 1 8 8v52.8a8 8 0 0 1-8 8H461.15a8 8 0 0 1-8-8z" stroke="#000" stroke-opacity="0" stroke-width="2" fill="#fff" fill-opacity="0"/><use xlink:href="#c" transform="matrix(1,0,0,1,457.1465527853436,78) translate(123.36864197530878 41.43555555555553)"/><use xlink:href="#d" transform="matrix(1,0,0,1,457.1465527853436,78) translate(246.90197530864205 41.43555555555553)"/><use xlink:href="#e" transform="matrix(1,0,0,1,457.1465527853436,78) translate(505.2723456790123 41.43555555555553)"/><use xlink:href="#f" transform="matrix(1,0,0,1,457.1465527853436,78) translate(647.645185185185 41.43555555555553)"/><path d="M453.15 136.98a8 8 0 0 1 8-8h837.7a8 8 0 0 1 8 8v2.85a8 8 0 0 1-8 8h-837.7a8 8 0 0 1-8-8z" stroke="#000" stroke-opacity="0" stroke-width="2" fill="#fff" fill-opacity="0"/><path d="M1260 180h120v120h-120V180z" stroke="#fff" stroke-opacity="0" stroke-width="2" fill="#d86613"/><path d="M1356.8 280h-19.72c-.64 0-1.15-.32-1.4-.88l-27.92-58.32h-11.78c-.9 0-1.6-.72-1.6-1.6v-17.6c0-.88.7-1.6 1.6-1.6h24.65c.64 0 1.15.32 1.4.88l27.8 58.32h6.97c.9 0 1.6.72 1.6 1.6v17.6c0 .88-.7 1.6-1.6 1.6zm-18.7-3.2h17.1v-14.4h-6.4c-.64 0-1.15-.32-1.4-.88l-27.8-58.32h-22v14.4h11.2c.63 0 1.14.32 1.46.88z" stroke="#fff" stroke-opacity="0" stroke-width="2" fill="#fff"/><path d="M1303.96 280h-20.8c-.55 0-1.05-.3-1.37-.73-.33-.54-.33-1.12-.08-1.6l21.78-45.46c.24-.58.8-.92 1.4-.92.65 0 1.18.34 1.46.88l10.4 21.43c.26.43.26.92 0 1.4L1305.42 279c-.2.63-.77 1.02-1.44 1.02zm-18.24-3.22h17.24l10.6-22.36-8.6-17.88z" stroke="#fff" stroke-opacity="0" stroke-width="2" fill="#fff"/><use xlink:href="#g" transform="matrix(1,0,0,1,1230,309.00000000000034) translate(47.50925925925927 23.11111111111111)"/><path d="M1260 380h120v120h-120V380z" stroke="#fff" stroke-opacity="0" stroke-width="2" fill="#d86613"/><path d="M1356.8 480h-19.72c-.64 0-1.15-.32-1.4-.88l-27.92-58.32h-11.78c-.9 0-1.6-.72-1.6-1.6v-17.6c0-.88.7-1.6 1.6-1.6h24.65c.64 0 1.15.32 1.4.88l27.8 58.32h6.97c.9 0 1.6.72 1.6 1.6v17.6c0 .88-.7 1.6-1.6 1.6zm-18.7-3.2h17.1v-14.4h-6.4c-.64 0-1.15-.32-1.4-.88l-27.8-58.32h-22v14.4h11.2c.63 0 1.14.32 1.46.88z" stroke="#fff" stroke-opacity="0" stroke-width="2" fill="#fff"/><path d="M1303.96 480h-20.8c-.55 0-1.05-.3-1.37-.73-.33-.54-.33-1.12-.08-1.6l21.78-45.46c.24-.58.8-.92 1.4-.92.65 0 1.18.34 1.46.88l10.4 21.43c.26.43.26.92 0 1.4L1305.42 479c-.2.63-.77 1.02-1.44 1.02zm-18.24-3.22h17.24l10.6-22.36-8.6-17.88z" stroke="#fff" stroke-opacity="0" stroke-width="2" fill="#fff"/><use xlink:href="#h" transform="matrix(1,0,0,1,1230,509.0000000000002) translate(59.5462962962963 23.11111111111111)"/><path d="M1260 580h120v120h-120V580z" stroke="#fff" stroke-opacity="0" stroke-width="2" fill="#d86613"/><path d="M1356.8 680h-19.72c-.64 0-1.15-.32-1.4-.88l-27.92-58.32h-11.78c-.9 0-1.6-.72-1.6-1.6v-17.6c0-.88.7-1.6 1.6-1.6h24.65c.64 0 1.15.32 1.4.88l27.8 58.32h6.97c.9 0 1.6.72 1.6 1.6v17.6c0 .88-.7 1.6-1.6 1.6zm-18.7-3.2h17.1v-14.4h-6.4c-.64 0-1.15-.32-1.4-.88l-27.8-58.32h-22v14.4h11.2c.63 0 1.14.32 1.46.88z" stroke="#fff" stroke-opacity="0" stroke-width="2" fill="#fff"/><path d="M1303.96 680h-20.8c-.55 0-1.05-.3-1.37-.73-.33-.54-.33-1.12-.08-1.6l21.78-45.46c.24-.58.8-.92 1.4-.92.65 0 1.18.34 1.46.88l10.4 21.43c.26.43.26.92 0 1.4L1305.42 679c-.2.63-.77 1.02-1.44 1.02zm-18.24-3.22h17.24l10.6-22.36-8.6-17.88z" stroke="#fff" stroke-opacity="0" stroke-width="2" fill="#fff"/><use xlink:href="#i" transform="matrix(1,0,0,1,1230,709.0000000000001) translate(42.814814814814824 23.11111111111111)"/><path d="M1260 780h120v120h-120V780z" stroke="#fff" stroke-opacity="0" stroke-width="2" fill="#d86613"/><path d="M1356.8 880h-19.72c-.64 0-1.15-.32-1.4-.88l-27.92-58.32h-11.78c-.9 0-1.6-.72-1.6-1.6v-17.6c0-.88.7-1.6 1.6-1.6h24.65c.64 0 1.15.32 1.4.88l27.8 58.32h6.97c.9 0 1.6.72 1.6 1.6v17.6c0 .88-.7 1.6-1.6 1.6zm-18.7-3.2h17.1v-14.4h-6.4c-.64 0-1.15-.32-1.4-.88l-27.8-58.32h-22v14.4h11.2c.63 0 1.14.32 1.46.88z" stroke="#fff" stroke-opacity="0" stroke-width="2" fill="#fff"/><path d="M1303.96 880h-20.8c-.55 0-1.05-.3-1.37-.73-.33-.54-.33-1.12-.08-1.6l21.78-45.46c.24-.58.8-.92 1.4-.92.65 0 1.18.34 1.46.88l10.4 21.43c.26.43.26.92 0 1.4L1305.42 879c-.2.63-.77 1.02-1.44 1.02zm-18.24-3.22h17.24l10.6-22.36-8.6-17.88z" stroke="#fff" stroke-opacity="0" stroke-width="2" fill="#fff"/><use xlink:href="#j" transform="matrix(1,0,0,1,1230,909) translate(48.351851851851855 23.11111111111111)"/><path d="M1260 980h120v120h-120V980z" stroke="#fff" stroke-opacity="0" stroke-width="2" fill="#d86613"/><path d="M1356.8 1080h-19.72c-.64 0-1.15-.32-1.4-.88l-27.92-58.32h-11.78c-.9 0-1.6-.72-1.6-1.6v-17.6c0-.88.7-1.6 1.6-1.6h24.65c.64 0 1.15.32 1.4.88l27.8 58.32h6.97c.9 0 1.6.72 1.6 1.6v17.6c0 .88-.7 1.6-1.6 1.6zm-18.7-3.2h17.1v-14.4h-6.4c-.64 0-1.15-.32-1.4-.88l-27.8-58.32h-22v14.4h11.2c.63 0 1.14.32 1.46.88z" stroke="#fff" stroke-opacity="0" stroke-width="2" fill="#fff"/><path d="M1303.96 1080h-20.8c-.55 0-1.05-.3-1.37-.73-.33-.54-.33-1.12-.08-1.6l21.78-45.46c.24-.58.8-.92 1.4-.92.65 0 1.18.34 1.46.88l10.4 21.43c.26.43.26.92 0 1.4l-11.35 23.98c-.2.63-.77 1.02-1.44 1.02zm-18.24-3.22h17.24l10.6-22.36-8.6-17.88z" stroke="#fff" stroke-opacity="0" stroke-width="2" fill="#fff"/><use xlink:href="#k" transform="matrix(1,0,0,1,1230,1109) translate(69.17592592592592 23.11111111111111)"/><path d="M1692.9 580h120v120h-120V580z" stroke="#fff" stroke-opacity="0" stroke-width="2" fill="#3b48cc"/><path d="M1773.32 644.78l-10.6 10.55c2-.56 3.64-1.2 5.5-2.24 1.08.63 1.67 1.67 1.9 2.87 0 2.96-6.2 6.16-15.4 7.43-3.06.4-5.56.57-8.6.57h-1.58c-12.96-.25-22.43-4.32-22.43-8 .18-1.2.83-2.16 1.92-2.88 5 2.8 13.17 4.47 22.1 4.47h.16l.92-3.2h-1.1c-8.8 0-16.97-1.76-21.26-4.47-1.75-1.12-2.73-2.4-2.73-3.44v-7.44c4.9 3.76 14.65 5.68 24 5.68 1.27 0 2.52 0 3.77-.08l.92-3.2c-1.64.08-3.1.16-4.7.16-13.7 0-24-4.23-24-8 .18-1.27.83-2.23 1.92-2.87 4.4 2.5 11.2 4 18.88 4.4l.1-3.2c-7.55-.4-14.4-2-18.16-4.47-1.75-1.03-2.67-2.3-2.73-3.43v-7.36c4.9 3.76 14.65 5.68 24 5.68h.34l1.74-3.2h-2.07c-13.7 0-24-4.16-24-8 0-3.75 10.3-8 24-8 4.86 0 9 .5 13.73 1.6h8.8c-4.83-2.95-13.1-4.78-22.52-4.78-13.16 0-27.2 3.9-27.2 11.2V624c.1 1.9.93 3.5 2.45 4.7-1.52 1.3-2.34 2.9-2.45 4.8v12.8c.1 2 .93 3.6 2.45 4.88-1.52 1.2-2.34 2.8-2.45 4.8v13.1c.44 7.03 14.2 10.8 27.2 10.8 13.02 0 26.8-3.76 27.22-10.88V655.88c-.05-1.9-.92-3.6-2.45-4.78 1.53-1.2 2.34-2.88 2.45-4.8zm-3.2 23.98c0 3.76-10.3 8-24 8-13.72 0-24-4.16-24-8v-7.35c4.9 3.68 14.63 5.68 24 5.68 9.35 0 19.1-2 24-5.67z" stroke="#fff" stroke-opacity="0" stroke-width="2" fill="#fff"/><path d="M1728.9 624.03c0 1.1-.9 2-2 2s-2-.9-2-2 .9-2 2-2 2 .9 2 2zM1728.9 646.43c0 1.1-.9 2-2 2s-2-.9-2-2 .9-2 2-2 2 .9 2 2zM1728.9 668.83c0 1.1-.9 2-2 2s-2-.9-2-2 .9-2 2-2 2 .9 2 2zM1750.1 662.37c-.28 0-.52-.06-.8-.22-.65-.38-.93-1.14-.73-1.85l9-29.95h-9.08c-.9.06-1.6-.65-1.6-1.58 0-.27.03-.54.2-.76l9.57-19.2c.28-.55.8-.88 1.45-.88h20.8c.9-.06 1.6.65 1.65 1.52.04.22 0 .38-.04.6l-4.13 12.25h8.98c.88.05 1.6.75 1.6 1.63 0 .43-.16.76-.44 1.1l-35.2 36.8c-.32.38-.72.54-1.24.54zm1-35.18h8.62c.52 0 .96.2 1.28.6.28.43.4.92.24 1.4l-7.7 25.6 28.03-29.24h-7.46c-.87 0-1.63-.65-1.67-1.52 0-.22 0-.44.08-.6l4.1-12.3H1759z" stroke="#fff" stroke-opacity="0" stroke-width="2" fill="#fff"/><use xlink:href="#l" transform="matrix(1,0,0,1,1662.9104998941636,709.0000000000001) translate(33.94753086419753 23.11111111111111)"/><use xlink:href="#m" transform="matrix(1,0,0,1,1662.9104998941636,709.0000000000001) translate(12.361111111111114 57.77777777777777)"/><path d="M580 580h120v120H580V580z" stroke="#fff" stroke-opacity="0" fill="#693cc5"/><path d="M657.6 678.42c-.35 0-.64-.15-.93-.3-.43-.3-.67-.77-.67-1.3v-73.63c0-.55.3-1.1.77-1.4.48-.3 1.08-.3 1.6-.07l20.8 10.22c.56.23.9.77.9 1.38v56.56c.02.76-.4 1.37-1.1 1.6l-20.8 6.92h-.56zm1.63-72.62v68.78l17.6-5.84v-54.4zM622.4 678.42h-.52l-20.8-6.92c-.67-.23-1.1-.92-1.08-1.6v-56.57c0-.6.33-1.15.9-1.38l20.8-10.22c.52-.23 1.1-.23 1.6.08.48.32.75.85.75 1.4v73.6c0 .54-.24 1-.67 1.3-.3.24-.6.32-1 .32zm-19.2-9.6l17.6 5.83V605.8l-17.6 8.6z" stroke="#fff" stroke-opacity="0" fill="#fff"/><path d="M656 624h-4.8v-3.2h4.8zm-9.6 0h-4.8v-3.2h4.8zm-9.6 0H632v-3.2h4.8zm-9.6 0h-4.8v-3.2h4.8zM656 659.2h-4.8V656h4.8zm-9.6 0h-4.8V656h4.8zm-9.6 0H632V656h4.8zm-9.6 0h-4.8V656h4.8zM632.98 645.5l-6.02-5.13c-.67-.57-.75-1.6-.18-2.26l.18-.17 6-5.13 2.08 2.43-4.58 3.97 4.58 3.92zM647.04 645.5l-2.08-2.42 4.57-3.88-4.6-3.9 2.1-2.5 6 5.12c.68.57.76 1.6.2 2.26-.07.07-.12.12-.2.17z" stroke="#fff" stroke-opacity="0" fill="#fff"/><path d="M635.3 648.87l6.35-18.8 3.03 1.03-6.35 18.8-3.04-1.03z" stroke="#fff" stroke-opacity="0" stroke-width=".32" fill="#fff"/><use xlink:href="#n" transform="matrix(1,0,0,1,550,709.0000000000001) translate(5.901234567901241 23.11111111111111)"/><use xlink:href="#o" transform="matrix(1,0,0,1,550,709.0000000000001) translate(126.03086419753087 23.11111111111111)"/><use xlink:href="#p" transform="matrix(1,0,0,1,550,709.0000000000001) translate(30.657407407407412 57.77777777777777)"/><path d="M289.9 220H494a6 6 0 0 1 6 6v408a6 6 0 0 0 6 6h55.5" stroke="#979ea8" stroke-width="2" fill="none"/><path d="M289.92 221h-1.02v-2h1.02z" stroke="#979ea8" stroke-width=".05" fill="#979ea8"/><path d="M576.76 640l-14.26 4.63v-9.26z" stroke="#979ea8" stroke-width="2" fill="#979ea8"/><path d="M1595.1 239.08l1.06.26 1.02.42.94.57.83.72.72.83.57.94.42 1.02.26 1.06.08 1.06v388l.07.82.18.76.3.73.4.67.52.6.6.5.66.4.73.3.76.2.82.06h68.37v2h-68.44l-1.06-.08-1.06-.26-1.02-.42-.94-.57-.83-.72-.72-.83-.57-.94-.42-1.02-.26-1.06-.08-1.06v-388l-.07-.82-.18-.76-.3-.73-.4-.67-.52-.6-.6-.5-.66-.4-.73-.3-.76-.2-.82-.06h-90.57v-2h90.64zM1381 241v-2h34.4v2z" stroke="#1071e5" stroke-width=".05" fill="#1071e5"/><path d="M1381.03 241H1380v-2h1.03z" fill="#1071e5"/><path d="M1381.05 241.03h-1.08v-2.06h1.08zm-1.02-2v1.94h.97v-1.94z" stroke="#1071e5" stroke-width=".05" fill="#1071e5"/><path d="M1689.67 640l-14.26 4.63v-9.26z" fill="#1071e5"/><path d="M1692.9 640l-18.5 6v-12zm-16.5 3.26l10.04-3.26-10.03-3.26z" stroke="#1071e5" stroke-width=".05" fill="#1071e5"/><use xlink:href="#q" transform="matrix(1,0,0,1,1415.3945358329356,225.33333333333368) translate(0 19.555555555555557)"/><path d="M1595.1 439.08l1.06.26 1.02.42.94.57.83.72.72.83.57.94.42 1.02.26 1.06.08 1.06v188l.07.82.18.76.3.73.4.67.52.6.6.5.66.4.73.3.76.2.82.06h68.37v2h-68.44l-1.06-.08-1.06-.26-1.02-.42-.94-.57-.83-.72-.72-.83-.57-.94-.42-1.02-.26-1.06-.08-1.06v-188l-.07-.82-.18-.76-.3-.73-.4-.67-.52-.6-.6-.5-.66-.4-.73-.3-.76-.2-.82-.06h-83.64v-2h83.72zM1381 441v-2h42.6v2z" stroke="#1071e5" stroke-width=".05" fill="#1071e5"/><path d="M1381.03 441H1380v-2h1.03z" fill="#1071e5"/><path d="M1381.05 441.02h-1.08v-2.04h1.08zm-1.02-2v1.96h.97v-1.96z" stroke="#1071e5" stroke-width=".05" fill="#1071e5"/><path d="M1689.67 640l-14.26 4.63v-9.26z" fill="#1071e5"/><path d="M1692.9 640l-18.5 6v-12zm-16.5 3.26l10.04-3.26-10.03-3.26z" stroke="#1071e5" stroke-width=".05" fill="#1071e5"/><use xlink:href="#r" transform="matrix(1,0,0,1,1423.6125528931025,425.33333333333354) translate(0 19.555555555555557)"/><path d="M1394.57 641H1381v-2h13.57zm279.84 0h-149.8v-2h149.8z" stroke="#1071e5" stroke-width=".05" fill="#1071e5"/><path d="M1381.03 641H1380v-2h1.03z" fill="#1071e5"/><path d="M1381.05 641.02h-1.08V639h1.08zm-1.02-2V641h.97V639z" stroke="#1071e5" stroke-width=".05" fill="#1071e5"/><path d="M1689.67 640l-14.26 4.63v-9.26z" fill="#1071e5"/><path d="M1692.9 640l-18.5 6v-12zm-16.5 3.26l10.04-3.26-10.03-3.26z" stroke="#1071e5" stroke-width=".05" fill="#1071e5"/><use xlink:href="#s" transform="matrix(1,0,0,1,1394.5687482031735,625.3333333333335) translate(0 19.555555555555557)"/><path d="M1406.64 840.5h-26.14v-1h26.14zm269.9-200H1606l-.88.07-.84.2-.8.33-.73.45-.66.56-.55.67-.45.73-.33.8-.2.84-.07.88v188l-.08 1-.24 1-.4.93-.52.87-.66.78-.78.66-.87.53-.94.38-.98.24-1 .08h-66.72v-1h66.68l.88-.07.84-.2.8-.33.73-.45.66-.56.55-.67.45-.73.33-.8.2-.84.07-.88v-188l.08-1 .24-1 .4-.93.52-.87.66-.78.78-.66.87-.53.94-.38.98-.24 1-.08h70.55z" stroke="#1071e5" stroke-width=".05" fill="#1071e5"/><path d="M1380.5 840.5h-.5v-1h.5z" fill="#1071e5"/><path d="M1380.54 840.52h-.57v-1.04h.57zm-.5-1v.96h.45v-.96z" stroke="#1071e5" stroke-width=".05" fill="#1071e5"/><path d="M1691.3 640l-14.27 4.63v-9.26z" fill="#1071e5"/><path d="M1692.9 640l-16.37 5.32v-10.64zm-15.37 3.95l12.14-3.95-12.14-3.95z" stroke="#1071e5" stroke-width=".05" fill="#1071e5"/><use xlink:href="#t" transform="matrix(1,0,0,1,1406.6372442511272,825.3333333333334) translate(0 19.555555555555557)"/><path d="M1413.32 1041H1381v-2h32.32zm261.1-400h-68.38l-.82.07-.76.18-.73.3-.67.4-.6.52-.5.6-.4.66-.3.73-.2.76-.06.82v388l-.08 1.06-.26 1.06-.42 1.02-.57.94-.72.83-.83.72-.94.57-1.02.42-1.06.26-1.06.08h-65.63v-2h65.56l.82-.07.76-.18.73-.3.67-.4.6-.52.5-.6.4-.66.3-.73.2-.76.06-.82v-388l.08-1.06.26-1.06.42-1.02.57-.94.72-.83.83-.72.94-.57 1.02-.42 1.06-.26 1.06-.08h68.45z" stroke="#1071e5" stroke-width=".05" fill="#1071e5"/><path d="M1381.03 1041H1380v-2h1.03z" fill="#1071e5"/><path d="M1381.05 1041.03h-1.08v-2.06h1.08zm-1.02-2v1.94h.97v-1.94z" stroke="#1071e5" stroke-width=".05" fill="#1071e5"/><path d="M1689.67 640l-14.26 4.63v-9.26z" fill="#1071e5"/><path d="M1692.9 640l-18.5 6v-12zm-16.5 3.26l10.04-3.26-10.03-3.26z" stroke="#1071e5" stroke-width=".05" fill="#1071e5"/><use xlink:href="#u" transform="matrix(1,0,0,1,1413.320713181535,1025.3333333333333) translate(0 19.555555555555557)"/><path d="M1692.9 640" stroke="#3a414a" fill="none"/><path stroke="#3a414a" stroke-width=".05" fill="#3a414a"/><path d="M1691.3 640l-14.27 4.63v-9.26z" stroke="#3a414a" fill="#3a414a"/><path d="M265.46 180h-33.12l-23.44 23.44v33.12L232.34 260h33.12l23.44-23.44v-33.12zm20 55.12l-21.44 21.44h-30.24l-21.44-21.44v-30.24l21.44-21.44h30.24l21.44 21.44z" stroke="#fff" stroke-opacity="0" stroke-width="3" fill="#693cc5"/><path d="M236.27 192.62l-13.92 12.14c-.78.5-1.24 1.28-1.28 2.22v26.28c.02 1 .5 1.83 1.34 2.28l13.43 11.8.44.28c.6.22 1.1.33 1.74.33.5 0 .9-.06 1.35-.28l.9-.5v-54.1l-.9-.5c-1.05-.4-2.07-.4-3.08.05zm.46 50.88l-12.2-10.7v-25.37l12.2-10.7zM261.5 192.58c-.98-.4-2-.4-3 0l-.9.5v54.1l.87.5c.44.2.86.27 1.34.27.64 0 1.18-.1 1.75-.33l13.93-12.13c.78-.5 1.22-1.3 1.24-2.24V207c-.02-1-.5-1.84-1.34-2.28l-13.4-11.8zm11.74 40.23l-12.17 10.7v-46.74l12.17 10.68zM241.94 218.26h3.48v3.48h-3.48v-3.48zM247.16 218.26h3.47v3.48h-3.47v-3.48zM252.38 218.26h3.47v3.48h-3.47v-3.48z" stroke="#fff" stroke-opacity="0" stroke-width="3" fill="#693cc5"/><use xlink:href="#v" transform="matrix(1,0,0,1,178.89630701940064,269) translate(30.71913580246914 23.11111111111111)"/><use xlink:href="#w" transform="matrix(1,0,0,1,178.89630701940064,269) translate(36.33641975308642 57.77777777777777)"/><path d="M265.46 390h-33.12l-23.44 23.44v33.12L232.34 470h33.12l23.44-23.44v-33.12zm20 55.12l-21.44 21.44h-30.24l-21.44-21.44v-30.24l21.44-21.44h30.24l21.44 21.44z" stroke="#fff" stroke-opacity="0" stroke-width="3" fill="#693cc5"/><path d="M236.27 402.62l-13.92 12.14c-.78.5-1.24 1.28-1.28 2.22v26.27c.02 1 .5 1.84 1.34 2.3l13.43 11.8.44.27c.6.22 1.1.33 1.74.33.5 0 .9-.06 1.35-.28l.9-.5v-54.1l-.9-.5c-1.05-.4-2.07-.4-3.08.05zm.46 50.88l-12.2-10.7v-25.37l12.2-10.7zM261.5 402.58c-.98-.38-2-.38-3 0l-.9.5v54.1l.87.5c.44.2.86.27 1.34.27.64 0 1.18-.1 1.75-.33l13.93-12.13c.78-.5 1.22-1.3 1.24-2.24V417c-.02-1-.5-1.84-1.34-2.3l-13.4-11.78zm11.74 40.23l-12.17 10.7v-46.74l12.17 10.68zM241.94 428.26h3.48v3.48h-3.48v-3.48zM247.16 428.26h3.47v3.48h-3.47v-3.48zM252.38 428.26h3.47v3.48h-3.47v-3.48z" stroke="#fff" stroke-opacity="0" stroke-width="3" fill="#693cc5"/><use xlink:href="#x" transform="matrix(1,0,0,1,178.89630701940064,479) translate(40.348765432098766 23.11111111111111)"/><use xlink:href="#y" transform="matrix(1,0,0,1,178.89630701940064,479) translate(-8.601851851851848 57.77777777777777)"/><path d="M265.46 600h-33.12l-23.44 23.44v33.12L232.34 680h33.12l23.44-23.44v-33.12zm20 55.12l-21.44 21.44h-30.24l-21.44-21.44v-30.24l21.44-21.44h30.24l21.44 21.44z" stroke="#fff" stroke-opacity="0" stroke-width="3" fill="#693cc5"/><path d="M236.27 612.62l-13.92 12.14c-.78.5-1.24 1.28-1.28 2.22v26.27c.02 1 .5 1.84 1.34 2.3l13.43 11.8.44.27c.6.22 1.1.33 1.74.33.5 0 .9-.06 1.35-.28l.9-.5v-54.1l-.9-.5c-1.05-.4-2.07-.4-3.08.05zm.46 50.88l-12.2-10.7v-25.37l12.2-10.7zM261.5 612.58c-.98-.38-2-.38-3 0l-.9.5v54.1l.87.5c.44.2.86.27 1.34.27.64 0 1.18-.1 1.75-.33l13.93-12.13c.78-.5 1.22-1.3 1.24-2.24V627c-.02-1-.5-1.84-1.34-2.28l-13.4-11.8zm11.74 40.23l-12.17 10.7v-46.74l12.17 10.68zM241.94 638.26h3.48v3.48h-3.48v-3.48zM247.16 638.26h3.47v3.48h-3.47v-3.48zM252.38 638.26h3.47v3.48h-3.47v-3.48z" stroke="#fff" stroke-opacity="0" stroke-width="3" fill="#693cc5"/><use xlink:href="#z" transform="matrix(1,0,0,1,178.89630701940064,689.0000000000001) translate(3.51543209876543 23.11111111111111)"/><use xlink:href="#w" transform="matrix(1,0,0,1,178.89630701940064,689.0000000000001) translate(69.1574074074074 23.11111111111111)"/><path d="M265.46 800h-33.12l-23.44 23.44v33.12L232.34 880h33.12l23.44-23.44v-33.12zm20 55.12l-21.44 21.44h-30.24l-21.44-21.44v-30.24l21.44-21.44h30.24l21.44 21.44z" stroke="#fff" stroke-opacity="0" stroke-width="3" fill="#693cc5"/><path d="M236.27 812.62l-13.92 12.14c-.78.5-1.24 1.28-1.28 2.22v26.27c.02 1 .5 1.84 1.34 2.3l13.43 11.8.44.27c.6.22 1.1.33 1.74.33.5 0 .9-.06 1.35-.28l.9-.5v-54.1l-.9-.5c-1.05-.4-2.07-.4-3.08.05zm.46 50.88l-12.2-10.7v-25.37l12.2-10.7zM261.5 812.58c-.98-.38-2-.38-3 0l-.9.5v54.1l.87.5c.44.2.86.27 1.34.27.64 0 1.18-.1 1.75-.33l13.93-12.13c.78-.5 1.22-1.3 1.24-2.24V827c-.02-1-.5-1.84-1.34-2.28l-13.4-11.8zm11.74 40.23l-12.17 10.7v-46.74l12.17 10.68zM241.94 838.26h3.48v3.48h-3.48v-3.48zM247.16 838.26h3.47v3.48h-3.47v-3.48zM252.38 838.26h3.47v3.48h-3.47v-3.48z" stroke="#fff" stroke-opacity="0" stroke-width="3" fill="#693cc5"/><use xlink:href="#A" transform="matrix(1,0,0,1,178.89630701940064,889) translate(13.145061728395063 23.11111111111111)"/><use xlink:href="#y" transform="matrix(1,0,0,1,178.89630701940064,889) translate(-8.601851851851848 57.77777777777777)"/><path d="M265.46 980h-33.12l-23.44 23.44v33.12l23.44 23.44h33.12l23.44-23.44v-33.12zm20 55.12l-21.44 21.44h-30.24l-21.44-21.44v-30.24l21.44-21.44h30.24l21.44 21.44z" stroke="#fff" stroke-opacity="0" stroke-width="3" fill="#693cc5"/><path d="M236.27 992.62l-13.92 12.14c-.78.5-1.24 1.28-1.28 2.22v26.28c.02 1 .5 1.83 1.34 2.28l13.43 11.8.44.28c.6.22 1.1.33 1.74.33.5 0 .9-.06 1.35-.28l.9-.5v-54.1l-.9-.5c-1.05-.4-2.07-.4-3.08.05zm.46 50.88l-12.2-10.7v-25.37l12.2-10.7zM261.5 992.58c-.98-.38-2-.38-3 0l-.9.5v54.1l.87.5c.44.2.86.27 1.34.27.64 0 1.18-.1 1.75-.33l13.93-12.13v-.02c.78-.5 1.22-1.27 1.24-2.22V1007c-.02-1-.5-1.84-1.34-2.28l-13.4-11.8zm11.74 40.23l-12.17 10.7v-46.74l12.17 10.68zM241.94 1018.26h3.48v3.48h-3.48v-3.48zM247.16 1018.26h3.47v3.48h-3.47v-3.48zM252.38 1018.26h3.47v3.48h-3.47v-3.48z" stroke="#fff" stroke-opacity="0" stroke-width="3" fill="#693cc5"/><use xlink:href="#B" transform="matrix(1,0,0,1,178.89630701940064,1069) translate(2.672839506172835 23.11111111111111)"/><use xlink:href="#w" transform="matrix(1,0,0,1,178.89630701940064,1069) translate(70 23.11111111111111)"/><path d="M289.9 430H394a6 6 0 0 1 6 6v198a6 6 0 0 0 6 6h155.5" stroke="#979ea8" stroke-width="2" fill="none"/><path d="M289.92 431h-1.02v-2h1.02z" stroke="#979ea8" stroke-width=".05" fill="#979ea8"/><path d="M576.76 640l-14.26 4.63v-9.26z" stroke="#979ea8" stroke-width="2" fill="#979ea8"/><path d="M289.9 640h271.6" stroke="#979ea8" stroke-width="2" fill="none"/><path d="M289.92 641h-1.02v-2h1.02z" stroke="#979ea8" stroke-width=".05" fill="#979ea8"/><path d="M576.76 640l-14.26 4.63v-9.26z" stroke="#979ea8" stroke-width="2" fill="#979ea8"/><path d="M289.9 840H394a6 6 0 0 0 6-6V646a6 6 0 0 1 6-6h155.5" stroke="#979ea8" stroke-width="2" fill="none"/><path d="M289.92 841h-1.02v-2h1.02z" stroke="#979ea8" stroke-width=".05" fill="#979ea8"/><path d="M576.76 640l-14.26 4.63v-9.26z" stroke="#979ea8" stroke-width="2" fill="#979ea8"/><path d="M289.9 1020H494a6 6 0 0 0 6-6V646a6 6 0 0 1 6-6h55.5" stroke="#979ea8" stroke-width="2" fill="none"/><path d="M289.92 1021h-1.02v-2h1.02z" stroke="#979ea8" stroke-width=".05" fill="#979ea8"/><path d="M576.76 640l-14.26 4.63v-9.26z" stroke="#979ea8" stroke-width="2" fill="#979ea8"/><path d="M739.67 641H701v-2h38.67zm501.83-400h-205.46l-.82.06-.76.2-.73.3-.67.4-.6.5-.5.6-.4.67-.3.73-.2.76-.06.82v388l-.08 1.06-.26 1.06-.42 1.02-.57.94-.72.83-.83.72-.94.57-1.02.42-1.06.26-1.06.08h-17.25v-2h17.16l.82-.07.76-.18.73-.3.67-.4.6-.52.5-.6.4-.66.3-.73.2-.76.06-.82v-388l.08-1.06.26-1.06.42-1.02.57-.94.72-.83.83-.72.94-.57 1.02-.42 1.06-.26 1.06-.08h205.54z" stroke="#635dff" stroke-width=".05" fill="#635dff"/><path d="M701.03 641H700v-2h1.03z" fill="#635dff"/><path d="M701.05 641.02h-1.07V639h1.07zm-1.02-2V641h.97V639z" stroke="#635dff" stroke-width=".05" fill="#635dff"/><path d="M1256.76 240l-14.26 4.63v-9.26z" fill="#635dff"/><path d="M1260 240l-18.5 6v-12zm-16.5 3.26l10.03-3.26-10.03-3.26zM739.67 641H701v-2h38.67zm501.83-200h-135.46l-.82.06-.76.2-.73.3-.67.4-.6.5-.5.6-.4.67-.3.73-.2.76-.06.82v188l-.08 1.06-.26 1.06-.42 1.02-.57.94-.72.83-.83.72-.94.57-1.02.42-1.06.26-1.06.08h-87.25v-2h87.16l.82-.07.76-.18.73-.3.67-.4.6-.52.5-.6.4-.66.3-.73.2-.76.06-.82v-188l.08-1.06.26-1.06.42-1.02.57-.94.72-.83.83-.72.94-.57 1.02-.42 1.06-.26 1.06-.08h135.54z" stroke="#635dff" stroke-width=".05" fill="#635dff"/><path d="M701.03 641H700v-2h1.03z" fill="#635dff"/><path d="M701.05 641.02h-1.07V639h1.07zm-1.02-2V641h.97V639z" stroke="#635dff" stroke-width=".05" fill="#635dff"/><path d="M1256.76 440l-14.26 4.63v-9.26z" fill="#635dff"/><path d="M1260 440l-18.5 6v-12zm-16.5 3.26l10.03-3.26-10.03-3.26zM739.67 641H701v-2h38.67zm501.83 0h-234.7v-2h234.7z" stroke="#635dff" stroke-width=".05" fill="#635dff"/><path d="M701.03 641H700v-2h1.03z" fill="#635dff"/><path d="M701.05 641.02h-1.07V639h1.07zm-1.02-2V641h.97V639z" stroke="#635dff" stroke-width=".05" fill="#635dff"/><path d="M1256.76 640l-14.26 4.63v-9.26z" fill="#635dff"/><path d="M1260 640l-18.5 6v-12zm-16.5 3.26l10.03-3.26-10.03-3.26z" stroke="#635dff" stroke-width=".05" fill="#635dff"/><g><use xlink:href="#C" transform="matrix(1,0,0,1,739.6691855845604,625.3333333333335) translate(0 19.555555555555557)"/></g><path d="M1095.1 639.08l1.06.26 1.02.42.94.57.83.72.72.83.57.94.42 1.02.26 1.06.08 1.06v188l.07.82.18.76.3.73.4.67.52.6.6.5.66.4.73.3.76.2.82.06h135.46v2h-135.54l-1.06-.08-1.06-.26-1.02-.42-.94-.57-.83-.72-.72-.83-.57-.94-.42-1.02-.26-1.06-.08-1.06v-188l-.07-.82-.18-.76-.3-.73-.4-.67-.52-.6-.6-.5-.66-.4-.73-.3-.76-.2-.82-.06h-87.17v-2h87.24zM701 641v-2h38.67v2z" stroke="#635dff" stroke-width=".05" fill="#635dff"/><path d="M701.03 641H700v-2h1.03z" fill="#635dff"/><path d="M701.05 641.02h-1.07V639h1.07zm-1.02-2V641h.97V639z" stroke="#635dff" stroke-width=".05" fill="#635dff"/><path d="M1256.76 840l-14.26 4.63v-9.26z" fill="#635dff"/><path d="M1260 840l-18.5 6v-12zm-16.5 3.26l10.03-3.26-10.03-3.26zM1025.1 639.08l1.06.26 1.02.42.94.57.83.72.72.83.57.94.42 1.02.26 1.06.08 1.06v388l.07.82.18.76.3.73.4.67.52.6.6.5.66.4.73.3.76.2.82.06h205.46v2h-205.54l-1.06-.08-1.06-.26-1.02-.42-.94-.57-.83-.72-.72-.83-.57-.94-.42-1.02-.26-1.06-.08-1.06v-388l-.07-.82-.18-.76-.3-.73-.4-.67-.52-.6-.6-.5-.66-.4-.73-.3-.76-.2-.82-.06h-17.17v-2h17.24zM701 641v-2h38.67v2z" stroke="#635dff" stroke-width=".05" fill="#635dff"/><path d="M701.03 641H700v-2h1.03z" fill="#635dff"/><path d="M701.05 641.02h-1.07V639h1.07zm-1.02-2V641h.97V639z" stroke="#635dff" stroke-width=".05" fill="#635dff"/><path d="M1256.76 1040l-14.26 4.63v-9.27z" fill="#635dff"/><path d="M1260 1040l-18.5 6v-12zm-16.5 3.26l10.03-3.26-10.03-3.26z" stroke="#635dff" stroke-width=".05" fill="#635dff"/><defs><path fill="#cc4e00" d="M199 0l-22-63H83L61 0H9l90-248h61L250 0h-51zm-33-102l-36-108c-10 38-24 72-36 108h72" id="D"/><path fill="#cc4e00" d="M275 0h-61l-44-196L126 0H64L0-248h53L97-49l45-199h58l43 199 44-199h52" id="E"/><path fill="#cc4e00" d="M169-182c-1-43-94-46-97-3 18 66 151 10 154 114 3 95-165 93-204 36-6-8-10-19-12-30l50-8c3 46 112 56 116 5-17-69-150-10-154-114-4-87 153-88 188-35 5 8 8 18 10 28" id="F"/><g id="a"><use transform="matrix(0.06790123456790123,0,0,0.06790123456790123,0,0)" xlink:href="#D"/><use transform="matrix(0.06790123456790123,0,0,0.06790123456790123,16.228395061728392,0)" xlink:href="#E"/><use transform="matrix(0.06790123456790123,0,0,0.06790123456790123,39.24691358024691,0)" xlink:href="#F"/></g><path fill="#cc4e00" d="M67-125c0 53 21 87 73 88 37 1 54-22 65-47l45 17C233-25 199 4 140 4 58 4 20-42 15-125 8-235 124-281 211-232c18 10 29 29 36 50l-46 12c-8-25-30-41-62-41-52 0-71 34-72 86" id="G"/><path fill="#cc4e00" d="M25 0v-261h50V0H25" id="H"/><path fill="#cc4e00" d="M110-194c64 0 96 36 96 99 0 64-35 99-97 99-61 0-95-36-95-99 0-62 34-99 96-99zm-1 164c35 0 45-28 45-65 0-40-10-65-43-65-34 0-45 26-45 65 0 36 10 65 43 65" id="I"/><path fill="#cc4e00" d="M85 4C-2 5 27-109 22-190h50c7 57-23 150 33 157 60-5 35-97 40-157h50l1 190h-47c-2-12 1-28-3-38-12 25-28 42-61 42" id="J"/><path fill="#cc4e00" d="M88-194c31-1 46 15 58 34l-1-101h50l1 261h-48c-2-10 0-23-3-31C134-8 116 4 84 4 32 4 16-41 15-95c0-56 19-97 73-99zm17 164c33 0 40-30 41-66 1-37-9-64-41-64s-38 30-39 65c0 43 13 65 39 65" id="K"/><g id="b"><use transform="matrix(0.06790123456790123,0,0,0.06790123456790123,0,0)" xlink:href="#G"/><use transform="matrix(0.06790123456790123,0,0,0.06790123456790123,17.586419753086417,0)" xlink:href="#H"/><use transform="matrix(0.06790123456790123,0,0,0.06790123456790123,24.37654320987654,0)" xlink:href="#I"/><use transform="matrix(0.06790123456790123,0,0,0.06790123456790123,39.24691358024691,0)" xlink:href="#J"/><use transform="matrix(0.06790123456790123,0,0,0.06790123456790123,54.11728395061728,0)" xlink:href="#K"/></g><path fill="#4c535d" d="M199 0l-22-63H83L61 0H9l90-248h61L250 0h-51zm-33-102l-36-108c-10 38-24 72-36 108h72" id="L"/><path fill="#4c535d" d="M275 0h-61l-44-196L126 0H64L0-248h53L97-49l45-199h58l43 199 44-199h52" id="M"/><path fill="#4c535d" d="M169-182c-1-43-94-46-97-3 18 66 151 10 154 114 3 95-165 93-204 36-6-8-10-19-12-30l50-8c3 46 112 56 116 5-17-69-150-10-154-114-4-87 153-88 188-35 5 8 8 18 10 28" id="N"/><g id="c"><use transform="matrix(0.13456790123456783,0,0,0.13456790123456783,0,0)" xlink:href="#L"/><use transform="matrix(0.13456790123456783,0,0,0.13456790123456783,32.161728395061715,0)" xlink:href="#M"/><use transform="matrix(0.13456790123456783,0,0,0.13456790123456783,77.78024691358021,0)" xlink:href="#N"/></g><path fill="#4c535d" d="M185-48c-13 30-37 53-82 52C43 2 14-33 14-96s30-98 90-98c62 0 83 45 84 108H66c0 31 8 55 39 56 18 0 30-7 34-22zm-45-69c5-46-57-63-70-21-2 6-4 13-4 21h74" id="O"/><path fill="#4c535d" d="M135-150c-39-12-60 13-60 57V0H25l-1-190h47c2 13-1 29 3 40 6-28 27-53 61-41v41" id="P"/><path fill="#4c535d" d="M128 0H69L1-190h53L99-40l48-150h52" id="Q"/><path fill="#4c535d" d="M25 0v-261h50V0H25" id="R"/><path fill="#4c535d" d="M137-138c1-29-70-34-71-4 15 46 118 7 119 86 1 83-164 76-172 9l43-7c4 19 20 25 44 25 33 8 57-30 24-41C81-84 22-81 20-136c-2-80 154-74 161-7" id="S"/><g id="d"><use transform="matrix(0.13456790123456783,0,0,0.13456790123456783,0,0)" xlink:href="#N"/><use transform="matrix(0.13456790123456783,0,0,0.13456790123456783,32.296296296296276,0)" xlink:href="#O"/><use transform="matrix(0.13456790123456783,0,0,0.13456790123456783,59.209876543209845,0)" xlink:href="#P"/><use transform="matrix(0.13456790123456783,0,0,0.13456790123456783,78.04938271604934,0)" xlink:href="#Q"/><use transform="matrix(0.13456790123456783,0,0,0.13456790123456783,104.9629629629629,0)" xlink:href="#O"/><use transform="matrix(0.13456790123456783,0,0,0.13456790123456783,131.87654320987647,0)" xlink:href="#P"/><use transform="matrix(0.13456790123456783,0,0,0.13456790123456783,150.71604938271597,0)" xlink:href="#R"/><use transform="matrix(0.13456790123456783,0,0,0.13456790123456783,164.17283950617275,0)" xlink:href="#O"/><use transform="matrix(0.13456790123456783,0,0,0.13456790123456783,191.08641975308632,0)" xlink:href="#S"/><use transform="matrix(0.13456790123456783,0,0,0.13456790123456783,217.9999999999999,0)" xlink:href="#S"/></g><path fill="#4c535d" d="M240-174c0 40-23 61-54 70L253 0h-59l-57-94H76V0H24v-248c93 4 217-23 216 74zM76-134c48-2 112 12 112-38 0-48-66-32-112-35v73" id="T"/><path fill="#4c535d" d="M24 0v-248h195v40H76v63h132v40H76v65h150V0H24" id="U"/><path fill="#4c535d" d="M136-208V0H84v-208H4v-40h212v40h-80" id="V"/><g id="e"><use transform="matrix(0.13456790123456783,0,0,0.13456790123456783,0,0)" xlink:href="#T"/><use transform="matrix(0.13456790123456783,0,0,0.13456790123456783,34.85308641975307,0)" xlink:href="#U"/><use transform="matrix(0.13456790123456783,0,0,0.13456790123456783,67.14938271604935,0)" xlink:href="#N"/><use transform="matrix(0.13456790123456783,0,0,0.13456790123456783,99.44567901234562,0)" xlink:href="#V"/></g><path fill="#4c535d" d="M24-248c93 1 206-16 204 79-1 75-69 88-152 82V0H24v-248zm52 121c47 0 100 7 100-41 0-47-54-39-100-39v80" id="W"/><path fill="#4c535d" d="M24 0v-248h52V0H24" id="X"/><g id="f"><use transform="matrix(0.13456790123456783,0,0,0.13456790123456783,0,0)" xlink:href="#L"/><use transform="matrix(0.13456790123456783,0,0,0.13456790123456783,34.85308641975307,0)" xlink:href="#W"/><use transform="matrix(0.13456790123456783,0,0,0.13456790123456783,67.14938271604935,0)" xlink:href="#X"/></g><path fill="#cc4e00" d="M190-63c-7 42-38 67-86 67-59 0-84-38-90-98-12-110 154-137 174-36l-49 2c-2-19-15-32-35-32-30 0-35 28-38 64-6 74 65 87 74 30" id="Y"/><path fill="#cc4e00" d="M135-150c-39-12-60 13-60 57V0H25l-1-190h47c2 13-1 29 3 40 6-28 27-53 61-41v41" id="Z"/><path fill="#cc4e00" d="M185-48c-13 30-37 53-82 52C43 2 14-33 14-96s30-98 90-98c62 0 83 45 84 108H66c0 31 8 55 39 56 18 0 30-7 34-22zm-45-69c5-46-57-63-70-21-2 6-4 13-4 21h74" id="aa"/><path fill="#cc4e00" d="M133-34C117-15 103 5 69 4 32 3 11-16 11-54c-1-60 55-63 116-61 1-26-3-47-28-47-18 1-26 9-28 27l-52-2c7-38 36-58 82-57s74 22 75 68l1 82c-1 14 12 18 25 15v27c-30 8-71 5-69-32zm-48 3c29 0 43-24 42-57-32 0-66-3-65 30 0 17 8 27 23 27" id="ab"/><path fill="#cc4e00" d="M115-3C79 11 28 4 28-45v-112H4v-33h27l15-45h31v45h36v33H77v99c-1 23 16 31 38 25v30" id="ac"/><g id="g"><use transform="matrix(0.08024691358024691,0,0,0.08024691358024691,0,0)" xlink:href="#Y"/><use transform="matrix(0.08024691358024691,0,0,0.08024691358024691,16.049382716049383,0)" xlink:href="#Z"/><use transform="matrix(0.08024691358024691,0,0,0.08024691358024691,27.28395061728395,0)" xlink:href="#aa"/><use transform="matrix(0.08024691358024691,0,0,0.08024691358024691,43.33333333333333,0)" xlink:href="#ab"/><use transform="matrix(0.08024691358024691,0,0,0.08024691358024691,59.3827160493827,0)" xlink:href="#ac"/><use transform="matrix(0.08024691358024691,0,0,0.08024691358024691,68.93209876543209,0)" xlink:href="#aa"/></g><g id="h"><use transform="matrix(0.08024691358024691,0,0,0.08024691358024691,0,0)" xlink:href="#Z"/><use transform="matrix(0.08024691358024691,0,0,0.08024691358024691,11.234567901234568,0)" xlink:href="#aa"/><use transform="matrix(0.08024691358024691,0,0,0.08024691358024691,27.28395061728395,0)" xlink:href="#ab"/><use transform="matrix(0.08024691358024691,0,0,0.08024691358024691,43.33333333333333,0)" xlink:href="#K"/></g><path fill="#cc4e00" d="M135-194c53 0 70 44 70 98 0 56-19 98-73 100-31 1-45-17-59-34 3 33 2 69 2 105H25l-1-265h48c2 10 0 23 3 31 11-24 29-35 60-35zM114-30c33 0 39-31 40-66 0-38-9-64-40-64-56 0-55 130 0 130" id="ad"/><g id="i"><use transform="matrix(0.08024691358024691,0,0,0.08024691358024691,0,0)" xlink:href="#J"/><use transform="matrix(0.08024691358024691,0,0,0.08024691358024691,17.574074074074073,0)" xlink:href="#ad"/><use transform="matrix(0.08024691358024691,0,0,0.08024691358024691,35.148148148148145,0)" xlink:href="#K"/><use transform="matrix(0.08024691358024691,0,0,0.08024691358024691,52.72222222222221,0)" xlink:href="#ab"/><use transform="matrix(0.08024691358024691,0,0,0.08024691358024691,68.7716049382716,0)" xlink:href="#ac"/><use transform="matrix(0.08024691358024691,0,0,0.08024691358024691,78.32098765432097,0)" xlink:href="#aa"/></g><g id="j"><use transform="matrix(0.08024691358024691,0,0,0.08024691358024691,0,0)" xlink:href="#K"/><use transform="matrix(0.08024691358024691,0,0,0.08024691358024691,17.574074074074073,0)" xlink:href="#aa"/><use transform="matrix(0.08024691358024691,0,0,0.08024691358024691,33.623456790123456,0)" xlink:href="#H"/><use transform="matrix(0.08024691358024691,0,0,0.08024691358024691,41.648148148148145,0)" xlink:href="#aa"/><use transform="matrix(0.08024691358024691,0,0,0.08024691358024691,57.697530864197525,0)" xlink:href="#ac"/><use transform="matrix(0.08024691358024691,0,0,0.08024691358024691,67.24691358024691,0)" xlink:href="#aa"/></g><path fill="#cc4e00" d="M25-224v-37h50v37H25zM25 0v-190h50V0H25" id="ae"/><path fill="#cc4e00" d="M137-138c1-29-70-34-71-4 15 46 118 7 119 86 1 83-164 76-172 9l43-7c4 19 20 25 44 25 33 8 57-30 24-41C81-84 22-81 20-136c-2-80 154-74 161-7" id="af"/><g id="k"><use transform="matrix(0.08024691358024691,0,0,0.08024691358024691,0,0)" xlink:href="#H"/><use transform="matrix(0.08024691358024691,0,0,0.08024691358024691,8.024691358024691,0)" xlink:href="#ae"/><use transform="matrix(0.08024691358024691,0,0,0.08024691358024691,16.049382716049383,0)" xlink:href="#af"/><use transform="matrix(0.08024691358024691,0,0,0.08024691358024691,32.098765432098766,0)" xlink:href="#ac"/></g><path fill="#1071e5" d="M199 0l-22-63H83L61 0H9l90-248h61L250 0h-51zm-33-102l-36-108c-10 38-24 72-36 108h72" id="ag"/><path fill="#1071e5" d="M220-157c-53 9-28 100-34 157h-49v-107c1-27-5-49-29-50C55-147 81-57 75 0H25l-1-190h47c2 12-1 28 3 38 10-53 101-56 108 0 13-22 24-43 59-42 82 1 51 116 57 194h-49v-107c-1-25-5-48-29-50" id="ah"/><path fill="#1071e5" d="M133-34C117-15 103 5 69 4 32 3 11-16 11-54c-1-60 55-63 116-61 1-26-3-47-28-47-18 1-26 9-28 27l-52-2c7-38 36-58 82-57s74 22 75 68l1 82c-1 14 12 18 25 15v27c-30 8-71 5-69-32zm-48 3c29 0 43-24 42-57-32 0-66-3-65 30 0 17 8 27 23 27" id="ai"/><path fill="#1071e5" d="M12 0v-35l95-120H19v-35h142v35L67-36h103V0H12" id="aj"/><path fill="#1071e5" d="M110-194c64 0 96 36 96 99 0 64-35 99-97 99-61 0-95-36-95-99 0-62 34-99 96-99zm-1 164c35 0 45-28 45-65 0-40-10-65-43-65-34 0-45 26-45 65 0 36 10 65 43 65" id="ak"/><path fill="#1071e5" d="M135-194c87-1 58 113 63 194h-50c-7-57 23-157-34-157-59 0-34 97-39 157H25l-1-190h47c2 12-1 28 3 38 12-26 28-41 61-42" id="al"/><g id="l"><use transform="matrix(0.08024691358024691,0,0,0.08024691358024691,0,0)" xlink:href="#ag"/><use transform="matrix(0.08024691358024691,0,0,0.08024691358024691,20.78395061728395,0)" xlink:href="#ah"/><use transform="matrix(0.08024691358024691,0,0,0.08024691358024691,46.46296296296296,0)" xlink:href="#ai"/><use transform="matrix(0.08024691358024691,0,0,0.08024691358024691,62.51234567901234,0)" xlink:href="#aj"/><use transform="matrix(0.08024691358024691,0,0,0.08024691358024691,76.95679012345678,0)" xlink:href="#ak"/><use transform="matrix(0.08024691358024691,0,0,0.08024691358024691,94.53086419753086,0)" xlink:href="#al"/></g><path fill="#1071e5" d="M24-248c120-7 223 5 221 122C244-46 201 0 124 0H24v-248zM76-40c74 7 117-18 117-86 0-67-45-88-117-82v168" id="am"/><path fill="#1071e5" d="M123 10C108 53 80 86 19 72V37c35 8 53-11 59-39L3-190h52l48 148c12-52 28-100 44-148h51" id="an"/><path fill="#1071e5" d="M182-130c37 4 62 22 62 59C244 23 116-4 24 0v-248c84 5 203-23 205 63 0 31-19 50-47 55zM76-148c40-3 101 13 101-30 0-44-60-28-101-31v61zm0 110c48-3 116 14 116-37 0-48-69-32-116-35v72" id="ao"/><g id="m"><use transform="matrix(0.08024691358024691,0,0,0.08024691358024691,0,0)" xlink:href="#am"/><use transform="matrix(0.08024691358024691,0,0,0.08024691358024691,20.78395061728395,0)" xlink:href="#an"/><use transform="matrix(0.08024691358024691,0,0,0.08024691358024691,36.83333333333333,0)" xlink:href="#al"/><use transform="matrix(0.08024691358024691,0,0,0.08024691358024691,54.407407407407405,0)" xlink:href="#ai"/><use transform="matrix(0.08024691358024691,0,0,0.08024691358024691,70.45679012345678,0)" xlink:href="#ah"/><use transform="matrix(0.08024691358024691,0,0,0.08024691358024691,96.1358024691358,0)" xlink:href="#ak"/><use transform="matrix(0.08024691358024691,0,0,0.08024691358024691,113.70987654320987,0)" xlink:href="#am"/><use transform="matrix(0.08024691358024691,0,0,0.08024691358024691,134.49382716049382,0)" xlink:href="#ao"/></g><path fill="#635dff" d="M199 0l-22-63H83L61 0H9l90-248h61L250 0h-51zm-33-102l-36-108c-10 38-24 72-36 108h72" id="ap"/><path fill="#635dff" d="M220-157c-53 9-28 100-34 157h-49v-107c1-27-5-49-29-50C55-147 81-57 75 0H25l-1-190h47c2 12-1 28 3 38 10-53 101-56 108 0 13-22 24-43 59-42 82 1 51 116 57 194h-49v-107c-1-25-5-48-29-50" id="aq"/><path fill="#635dff" d="M133-34C117-15 103 5 69 4 32 3 11-16 11-54c-1-60 55-63 116-61 1-26-3-47-28-47-18 1-26 9-28 27l-52-2c7-38 36-58 82-57s74 22 75 68l1 82c-1 14 12 18 25 15v27c-30 8-71 5-69-32zm-48 3c29 0 43-24 42-57-32 0-66-3-65 30 0 17 8 27 23 27" id="ar"/><path fill="#635dff" d="M12 0v-35l95-120H19v-35h142v35L67-36h103V0H12" id="as"/><path fill="#635dff" d="M110-194c64 0 96 36 96 99 0 64-35 99-97 99-61 0-95-36-95-99 0-62 34-99 96-99zm-1 164c35 0 45-28 45-65 0-40-10-65-43-65-34 0-45 26-45 65 0 36 10 65 43 65" id="at"/><path fill="#635dff" d="M135-194c87-1 58 113 63 194h-50c-7-57 23-157-34-157-59 0-34 97-39 157H25l-1-190h47c2 12-1 28 3 38 12-26 28-41 61-42" id="au"/><g id="n"><use transform="matrix(0.08024691358024691,0,0,0.08024691358024691,0,0)" xlink:href="#ap"/><use transform="matrix(0.08024691358024691,0,0,0.08024691358024691,20.78395061728395,0)" xlink:href="#aq"/><use transform="matrix(0.08024691358024691,0,0,0.08024691358024691,46.46296296296296,0)" xlink:href="#ar"/><use transform="matrix(0.08024691358024691,0,0,0.08024691358024691,62.51234567901234,0)" xlink:href="#as"/><use transform="matrix(0.08024691358024691,0,0,0.08024691358024691,76.95679012345678,0)" xlink:href="#at"/><use transform="matrix(0.08024691358024691,0,0,0.08024691358024691,94.53086419753086,0)" xlink:href="#au"/></g><path fill="#635dff" d="M24-248c93 1 206-16 204 79-1 75-69 88-152 82V0H24v-248zm52 121c47 0 100 7 100-41 0-47-54-39-100-39v80" id="av"/><path fill="#635dff" d="M24 0v-248h52V0H24" id="aw"/><g id="o"><use transform="matrix(0.08024691358024691,0,0,0.08024691358024691,0,0)" xlink:href="#ap"/><use transform="matrix(0.08024691358024691,0,0,0.08024691358024691,20.78395061728395,0)" xlink:href="#av"/><use transform="matrix(0.08024691358024691,0,0,0.08024691358024691,40.04320987654321,0)" xlink:href="#aw"/></g><path fill="#635dff" d="M67-125c0 54 23 88 75 88 28 0 53-7 68-21v-34h-60v-39h108v91C232-14 192 4 140 4 58 4 20-42 15-125 8-236 126-280 215-234c19 10 29 26 37 47l-47 15c-11-23-29-39-63-39-53 1-75 33-75 86" id="ax"/><path fill="#635dff" d="M115-3C79 11 28 4 28-45v-112H4v-33h27l15-45h31v45h36v33H77v99c-1 23 16 31 38 25v30" id="ay"/><path fill="#635dff" d="M185-48c-13 30-37 53-82 52C43 2 14-33 14-96s30-98 90-98c62 0 83 45 84 108H66c0 31 8 55 39 56 18 0 30-7 34-22zm-45-69c5-46-57-63-70-21-2 6-4 13-4 21h74" id="az"/><path fill="#635dff" d="M231 0h-52l-39-155L100 0H48L-1-190h46L77-45c9-52 24-97 36-145h53l37 145 32-145h46" id="aA"/><path fill="#635dff" d="M123 10C108 53 80 86 19 72V37c35 8 53-11 59-39L3-190h52l48 148c12-52 28-100 44-148h51" id="aB"/><g id="p"><use transform="matrix(0.08024691358024691,0,0,0.08024691358024691,0,0)" xlink:href="#ax"/><use transform="matrix(0.08024691358024691,0,0,0.08024691358024691,22.469135802469136,0)" xlink:href="#ar"/><use transform="matrix(0.08024691358024691,0,0,0.08024691358024691,38.51851851851852,0)" xlink:href="#ay"/><use transform="matrix(0.08024691358024691,0,0,0.08024691358024691,48.0679012345679,0)" xlink:href="#az"/><use transform="matrix(0.08024691358024691,0,0,0.08024691358024691,64.11728395061728,0)" xlink:href="#aA"/><use transform="matrix(0.08024691358024691,0,0,0.08024691358024691,86.58641975308642,0)" xlink:href="#ar"/><use transform="matrix(0.08024691358024691,0,0,0.08024691358024691,102.6358024691358,0)" xlink:href="#aB"/></g><path fill="#1071e5" d="M135-194c53 0 70 44 70 98 0 56-19 98-73 100-31 1-45-17-59-34 3 33 2 69 2 105H25l-1-265h48c2 10 0 23 3 31 11-24 29-35 60-35zM114-30c33 0 39-31 40-66 0-38-9-64-40-64-56 0-55 130 0 130" id="aC"/><path fill="#1071e5" d="M85 4C-2 5 27-109 22-190h50c7 57-23 150 33 157 60-5 35-97 40-157h50l1 190h-47c-2-12 1-28-3-38-12 25-28 42-61 42" id="aD"/><path fill="#1071e5" d="M115-3C79 11 28 4 28-45v-112H4v-33h27l15-45h31v45h36v33H77v99c-1 23 16 31 38 25v30" id="aE"/><path fill="#1071e5" d="M24 0v-248h52V0H24" id="aF"/><path fill="#1071e5" d="M185-48c-13 30-37 53-82 52C43 2 14-33 14-96s30-98 90-98c62 0 83 45 84 108H66c0 31 8 55 39 56 18 0 30-7 34-22zm-45-69c5-46-57-63-70-21-2 6-4 13-4 21h74" id="aG"/><g id="q"><use transform="matrix(0.06790123456790123,0,0,0.06790123456790123,0,0)" xlink:href="#aC"/><use transform="matrix(0.06790123456790123,0,0,0.06790123456790123,14.87037037037037,0)" xlink:href="#aD"/><use transform="matrix(0.06790123456790123,0,0,0.06790123456790123,29.74074074074074,0)" xlink:href="#aE"/><use transform="matrix(0.06790123456790123,0,0,0.06790123456790123,37.82098765432099,0)" xlink:href="#aF"/><use transform="matrix(0.06790123456790123,0,0,0.06790123456790123,44.611111111111114,0)" xlink:href="#aE"/><use transform="matrix(0.06790123456790123,0,0,0.06790123456790123,52.69135802469136,0)" xlink:href="#aG"/><use transform="matrix(0.06790123456790123,0,0,0.06790123456790123,66.27160493827161,0)" xlink:href="#ah"/></g><path fill="#1071e5" d="M195-6C206 82 75 100 31 46c-4-6-6-13-8-21l49-6c3 16 16 24 34 25 40 0 42-37 40-79-11 22-30 35-61 35-53 0-70-43-70-97 0-56 18-96 73-97 30 0 46 14 59 34l2-30h47zm-90-29c32 0 41-27 41-63 0-35-9-62-40-62-32 0-39 29-40 63 0 36 9 62 39 62" id="aH"/><g id="r"><use transform="matrix(0.06790123456790123,0,0,0.06790123456790123,0,0)" xlink:href="#aH"/><use transform="matrix(0.06790123456790123,0,0,0.06790123456790123,14.87037037037037,0)" xlink:href="#aG"/><use transform="matrix(0.06790123456790123,0,0,0.06790123456790123,28.450617283950617,0)" xlink:href="#aE"/><use transform="matrix(0.06790123456790123,0,0,0.06790123456790123,36.53086419753086,0)" xlink:href="#aF"/><use transform="matrix(0.06790123456790123,0,0,0.06790123456790123,43.32098765432099,0)" xlink:href="#aE"/><use transform="matrix(0.06790123456790123,0,0,0.06790123456790123,51.401234567901234,0)" xlink:href="#aG"/><use transform="matrix(0.06790123456790123,0,0,0.06790123456790123,64.98148148148148,0)" xlink:href="#ah"/></g><path fill="#1071e5" d="M88-194c31-1 46 15 58 34l-1-101h50l1 261h-48c-2-10 0-23-3-31C134-8 116 4 84 4 32 4 16-41 15-95c0-56 19-97 73-99zm17 164c33 0 40-30 41-66 1-37-9-64-41-64s-38 30-39 65c0 43 13 65 39 65" id="aI"/><g id="s"><use transform="matrix(0.06790123456790123,0,0,0.06790123456790123,0,0)" xlink:href="#aD"/><use transform="matrix(0.06790123456790123,0,0,0.06790123456790123,14.87037037037037,0)" xlink:href="#aC"/><use transform="matrix(0.06790123456790123,0,0,0.06790123456790123,29.74074074074074,0)" xlink:href="#aI"/><use transform="matrix(0.06790123456790123,0,0,0.06790123456790123,44.611111111111114,0)" xlink:href="#ai"/><use transform="matrix(0.06790123456790123,0,0,0.06790123456790123,58.19135802469136,0)" xlink:href="#aE"/><use transform="matrix(0.06790123456790123,0,0,0.06790123456790123,66.27160493827161,0)" xlink:href="#aG"/><use transform="matrix(0.06790123456790123,0,0,0.06790123456790123,79.85185185185185,0)" xlink:href="#aF"/><use transform="matrix(0.06790123456790123,0,0,0.06790123456790123,86.64197530864197,0)" xlink:href="#aE"/><use transform="matrix(0.06790123456790123,0,0,0.06790123456790123,94.72222222222223,0)" xlink:href="#aG"/><use transform="matrix(0.06790123456790123,0,0,0.06790123456790123,108.30246913580248,0)" xlink:href="#ah"/></g><path fill="#1071e5" d="M25 0v-261h50V0H25" id="aJ"/><g id="t"><use transform="matrix(0.06790123456790123,0,0,0.06790123456790123,0,0)" xlink:href="#aI"/><use transform="matrix(0.06790123456790123,0,0,0.06790123456790123,14.87037037037037,0)" xlink:href="#aG"/><use transform="matrix(0.06790123456790123,0,0,0.06790123456790123,28.450617283950617,0)" xlink:href="#aJ"/><use transform="matrix(0.06790123456790123,0,0,0.06790123456790123,35.24074074074074,0)" xlink:href="#aG"/><use transform="matrix(0.06790123456790123,0,0,0.06790123456790123,48.82098765432099,0)" xlink:href="#aE"/><use transform="matrix(0.06790123456790123,0,0,0.06790123456790123,56.901234567901234,0)" xlink:href="#aG"/><use transform="matrix(0.06790123456790123,0,0,0.06790123456790123,70.48148148148148,0)" xlink:href="#aF"/><use transform="matrix(0.06790123456790123,0,0,0.06790123456790123,77.2716049382716,0)" xlink:href="#aE"/><use transform="matrix(0.06790123456790123,0,0,0.06790123456790123,85.35185185185185,0)" xlink:href="#aG"/><use transform="matrix(0.06790123456790123,0,0,0.06790123456790123,98.93209876543212,0)" xlink:href="#ah"/></g><path fill="#1071e5" d="M137-138c1-29-70-34-71-4 15 46 118 7 119 86 1 83-164 76-172 9l43-7c4 19 20 25 44 25 33 8 57-30 24-41C81-84 22-81 20-136c-2-80 154-74 161-7" id="aK"/><path fill="#1071e5" d="M190-63c-7 42-38 67-86 67-59 0-84-38-90-98-12-110 154-137 174-36l-49 2c-2-19-15-32-35-32-30 0-35 28-38 64-6 74 65 87 74 30" id="aL"/><g id="u"><use transform="matrix(0.06790123456790123,0,0,0.06790123456790123,0,0)" xlink:href="#aK"/><use transform="matrix(0.06790123456790123,0,0,0.06790123456790123,13.580246913580247,0)" xlink:href="#aL"/><use transform="matrix(0.06790123456790123,0,0,0.06790123456790123,27.160493827160494,0)" xlink:href="#ai"/><use transform="matrix(0.06790123456790123,0,0,0.06790123456790123,40.74074074074074,0)" xlink:href="#al"/><use transform="matrix(0.06790123456790123,0,0,0.06790123456790123,55.611111111111114,0)" xlink:href="#aF"/><use transform="matrix(0.06790123456790123,0,0,0.06790123456790123,62.40123456790124,0)" xlink:href="#al"/><use transform="matrix(0.06790123456790123,0,0,0.06790123456790123,77.2716049382716,0)" xlink:href="#aC"/><use transform="matrix(0.06790123456790123,0,0,0.06790123456790123,92.14197530864197,0)" xlink:href="#aD"/><use transform="matrix(0.06790123456790123,0,0,0.06790123456790123,107.01234567901234,0)" xlink:href="#aE"/></g><path fill="#6f7681" d="M24-248c93 1 206-16 204 79-1 75-69 88-152 82V0H24v-248zm52 121c47 0 100 7 100-41 0-47-54-39-100-39v80" id="aM"/><path fill="#6f7681" d="M140-251c80 0 125 45 125 126S219 4 139 4C58 4 15-44 15-125s44-126 125-126zm-1 214c52 0 73-35 73-88 0-50-21-86-72-86-52 0-73 35-73 86s22 88 72 88" id="aN"/><path fill="#6f7681" d="M169-182c-1-43-94-46-97-3 18 66 151 10 154 114 3 95-165 93-204 36-6-8-10-19-12-30l50-8c3 46 112 56 116 5-17-69-150-10-154-114-4-87 153-88 188-35 5 8 8 18 10 28" id="aO"/><path fill="#6f7681" d="M136-208V0H84v-208H4v-40h212v40h-80" id="aP"/><g id="v"><use transform="matrix(0.08024691358024691,0,0,0.08024691358024691,0,0)" xlink:href="#aM"/><use transform="matrix(0.08024691358024691,0,0,0.08024691358024691,19.25925925925926,0)" xlink:href="#aN"/><use transform="matrix(0.08024691358024691,0,0,0.08024691358024691,41.72839506172839,0)" xlink:href="#aO"/><use transform="matrix(0.08024691358024691,0,0,0.08024691358024691,60.98765432098765,0)" xlink:href="#aP"/></g><path fill="#6f7681" d="M4 7l51-268h42L46 7H4" id="aQ"/><path fill="#6f7681" d="M24 0v-248h52V0H24" id="aR"/><path fill="#6f7681" d="M115-3C79 11 28 4 28-45v-112H4v-33h27l15-45h31v45h36v33H77v99c-1 23 16 31 38 25v30" id="aS"/><path fill="#6f7681" d="M185-48c-13 30-37 53-82 52C43 2 14-33 14-96s30-98 90-98c62 0 83 45 84 108H66c0 31 8 55 39 56 18 0 30-7 34-22zm-45-69c5-46-57-63-70-21-2 6-4 13-4 21h74" id="aT"/><path fill="#6f7681" d="M220-157c-53 9-28 100-34 157h-49v-107c1-27-5-49-29-50C55-147 81-57 75 0H25l-1-190h47c2 12-1 28 3 38 10-53 101-56 108 0 13-22 24-43 59-42 82 1 51 116 57 194h-49v-107c-1-25-5-48-29-50" id="aU"/><g id="w"><use transform="matrix(0.08024691358024691,0,0,0.08024691358024691,0,0)" xlink:href="#aQ"/><use transform="matrix(0.08024691358024691,0,0,0.08024691358024691,8.024691358024691,0)" xlink:href="#aR"/><use transform="matrix(0.08024691358024691,0,0,0.08024691358024691,16.049382716049383,0)" xlink:href="#aS"/><use transform="matrix(0.08024691358024691,0,0,0.08024691358024691,25.598765432098762,0)" xlink:href="#aT"/><use transform="matrix(0.08024691358024691,0,0,0.08024691358024691,41.64814814814815,0)" xlink:href="#aU"/></g><path fill="#6f7681" d="M67-125c0 54 23 88 75 88 28 0 53-7 68-21v-34h-60v-39h108v91C232-14 192 4 140 4 58 4 20-42 15-125 8-236 126-280 215-234c19 10 29 26 37 47l-47 15c-11-23-29-39-63-39-53 1-75 33-75 86" id="aV"/><path fill="#6f7681" d="M24 0v-248h195v40H76v63h132v40H76v65h150V0H24" id="aW"/><g id="x"><use transform="matrix(0.08024691358024691,0,0,0.08024691358024691,0,0)" xlink:href="#aV"/><use transform="matrix(0.08024691358024691,0,0,0.08024691358024691,22.469135802469136,0)" xlink:href="#aW"/><use transform="matrix(0.08024691358024691,0,0,0.08024691358024691,41.72839506172839,0)" xlink:href="#aP"/></g><path fill="#6f7681" d="M15-91v-56l181-69v40L49-119l147 57v40" id="aX"/><path fill="#6f7681" d="M147 0L96-86 75-71V0H25v-261h50v150l67-79h53l-66 74L201 0h-54" id="aY"/><path fill="#6f7681" d="M123 10C108 53 80 86 19 72V37c35 8 53-11 59-39L3-190h52l48 148c12-52 28-100 44-148h51" id="aZ"/><path fill="#6f7681" d="M15-22v-40l146-57-146-57v-40l181 69v56" id="ba"/><g id="y"><use transform="matrix(0.08024691358024691,0,0,0.08024691358024691,0,0)" xlink:href="#aQ"/><use transform="matrix(0.08024691358024691,0,0,0.08024691358024691,8.024691358024691,0)" xlink:href="#aR"/><use transform="matrix(0.08024691358024691,0,0,0.08024691358024691,16.049382716049383,0)" xlink:href="#aS"/><use transform="matrix(0.08024691358024691,0,0,0.08024691358024691,25.598765432098762,0)" xlink:href="#aT"/><use transform="matrix(0.08024691358024691,0,0,0.08024691358024691,41.64814814814815,0)" xlink:href="#aU"/><use transform="matrix(0.08024691358024691,0,0,0.08024691358024691,67.32716049382717,0)" xlink:href="#aQ"/><use transform="matrix(0.08024691358024691,0,0,0.08024691358024691,75.35185185185186,0)" xlink:href="#aX"/><use transform="matrix(0.08024691358024691,0,0,0.08024691358024691,92.20370370370372,0)" xlink:href="#aY"/><use transform="matrix(0.08024691358024691,0,0,0.08024691358024691,108.25308641975307,0)" xlink:href="#aT"/><use transform="matrix(0.08024691358024691,0,0,0.08024691358024691,124.30246913580247,0)" xlink:href="#aZ"/><use transform="matrix(0.08024691358024691,0,0,0.08024691358024691,140.35185185185185,0)" xlink:href="#ba"/></g><path fill="#6f7681" d="M238-95c0 69-44 99-111 99C63 4 22-25 22-93v-155h51v151c-1 38 19 59 55 60 90 1 49-130 58-211h52v153" id="bb"/><g id="z"><use transform="matrix(0.08024691358024691,0,0,0.08024691358024691,0,0)" xlink:href="#aM"/><use transform="matrix(0.08024691358024691,0,0,0.08024691358024691,19.25925925925926,0)" xlink:href="#bb"/><use transform="matrix(0.08024691358024691,0,0,0.08024691358024691,40.04320987654321,0)" xlink:href="#aP"/></g><path fill="#6f7681" d="M24-248c120-7 223 5 221 122C244-46 201 0 124 0H24v-248zM76-40c74 7 117-18 117-86 0-67-45-88-117-82v168" id="bc"/><path fill="#6f7681" d="M24 0v-248h52v208h133V0H24" id="bd"/><g id="A"><use transform="matrix(0.08024691358024691,0,0,0.08024691358024691,0,0)" xlink:href="#bc"/><use transform="matrix(0.08024691358024691,0,0,0.08024691358024691,20.78395061728395,0)" xlink:href="#aW"/><use transform="matrix(0.08024691358024691,0,0,0.08024691358024691,40.04320987654321,0)" xlink:href="#bd"/><use transform="matrix(0.08024691358024691,0,0,0.08024691358024691,57.61728395061728,0)" xlink:href="#aW"/><use transform="matrix(0.08024691358024691,0,0,0.08024691358024691,76.87654320987653,0)" xlink:href="#aP"/><use transform="matrix(0.08024691358024691,0,0,0.08024691358024691,94.4506172839506,0)" xlink:href="#aW"/></g><g id="B"><use transform="matrix(0.08024691358024691,0,0,0.08024691358024691,0,0)" xlink:href="#aV"/><use transform="matrix(0.08024691358024691,0,0,0.08024691358024691,22.469135802469136,0)" xlink:href="#aW"/><use transform="matrix(0.08024691358024691,0,0,0.08024691358024691,41.72839506172839,0)" xlink:href="#aP"/></g><path fill="#635dff" d="M147 0H94L2-248h55l64 206c17-72 42-137 63-206h54" id="be"/><path fill="#635dff" d="M182-182c0 78-84 86-111 141h115V0H12c-6-101 99-100 120-180 1-22-12-31-33-32-23 0-32 14-35 34l-49-3c5-45 32-70 84-70 51 0 83 22 83 69" id="bf"/><path fill="#635dff" d="M240-174c0 40-23 61-54 70L253 0h-59l-57-94H76V0H24v-248c93 4 217-23 216 74zM76-134c48-2 112 12 112-38 0-48-66-32-112-35v73" id="bg"/><path fill="#635dff" d="M84 4C32 4 15-41 15-95c0-55 18-99 73-99 29 0 47 12 58 34l2-30h48l-1 265h-49V-32C136-9 114 4 84 4zm21-34c32 0 41-29 41-66 0-36-9-64-40-64-33 0-39 30-40 65 0 43 13 65 39 65" id="bh"/><path fill="#635dff" d="M85 4C-2 5 27-109 22-190h50c7 57-23 150 33 157 60-5 35-97 40-157h50l1 190h-47c-2-12 1-28-3-38-12 25-28 42-61 42" id="bi"/><path fill="#635dff" d="M137-138c1-29-70-34-71-4 15 46 118 7 119 86 1 83-164 76-172 9l43-7c4 19 20 25 44 25 33 8 57-30 24-41C81-84 22-81 20-136c-2-80 154-74 161-7" id="bj"/><g id="C"><use transform="matrix(0.06790123456790123,0,0,0.06790123456790123,0,0)" xlink:href="#ap"/><use transform="matrix(0.06790123456790123,0,0,0.06790123456790123,17.586419753086417,0)" xlink:href="#av"/><use transform="matrix(0.06790123456790123,0,0,0.06790123456790123,33.88271604938271,0)" xlink:href="#aw"/><use transform="matrix(0.06790123456790123,0,0,0.06790123456790123,40.672839506172835,0)" xlink:href="#ax"/><use transform="matrix(0.06790123456790123,0,0,0.06790123456790123,59.685185185185176,0)" xlink:href="#ar"/><use transform="matrix(0.06790123456790123,0,0,0.06790123456790123,73.26543209876542,0)" xlink:href="#ay"/><use transform="matrix(0.06790123456790123,0,0,0.06790123456790123,81.34567901234567,0)" xlink:href="#az"/><use transform="matrix(0.06790123456790123,0,0,0.06790123456790123,94.92592592592592,0)" xlink:href="#aA"/><use transform="matrix(0.06790123456790123,0,0,0.06790123456790123,113.93827160493827,0)" xlink:href="#ar"/><use transform="matrix(0.06790123456790123,0,0,0.06790123456790123,127.5185185185185,0)" xlink:href="#aB"/><use transform="matrix(0.06790123456790123,0,0,0.06790123456790123,141.09876543209876,0)" xlink:href="#be"/><use transform="matrix(0.06790123456790123,0,0,0.06790123456790123,157.39506172839506,0)" xlink:href="#bf"/><use transform="matrix(0.06790123456790123,0,0,0.06790123456790123,170.97530864197532,0)" xlink:href="#bg"/><use transform="matrix(0.06790123456790123,0,0,0.06790123456790123,188.56172839506172,0)" xlink:href="#az"/><use transform="matrix(0.06790123456790123,0,0,0.06790123456790123,202.14197530864197,0)" xlink:href="#bh"/><use transform="matrix(0.06790123456790123,0,0,0.06790123456790123,217.01234567901236,0)" xlink:href="#bi"/><use transform="matrix(0.06790123456790123,0,0,0.06790123456790123,231.88271604938274,0)" xlink:href="#az"/><use transform="matrix(0.06790123456790123,0,0,0.06790123456790123,245.462962962963,0)" xlink:href="#bj"/><use transform="matrix(0.06790123456790123,0,0,0.06790123456790123,259.04320987654324,0)" xlink:href="#ay"/></g></defs></g></svg>