<svg xmlns="http://www.w3.org/2000/svg" xmlns:xlink="http://www.w3.org/1999/xlink" xmlns:lucid="lucid" width="1996.6" height="1000.09"><g transform="translate(0 0)" lucid:page-tab-id="bfj1I89CaO24"><path d="M88.9 74H1900v826H88.9z" stroke="#232f3e" stroke-width="2" fill-opacity="0"/><path d="M88.9 74h56v56h-56V74z" stroke="#fff" stroke-opacity="0" fill="#232f3e"/><path d="M107.12 99.87c-.04.48.04.87.16 1.34.13.4.3.7.5 1.08.04.1.08.2.08.33 0 .2-.12.36-.3.46l-.93.62c-.13.08-.25.13-.37.13-.17 0-.33-.06-.45-.2-.2-.2-.36-.43-.53-.7-.16-.25-.28-.53-.45-.86-1.1 1.37-2.63 2.1-4.4 2.06-1.14.06-2.13-.3-2.95-1.08-.78-.8-1.15-1.76-1.1-2.85-.05-1.23.4-2.28 1.35-3.08 1.06-.85 2.3-1.23 3.65-1.16.58 0 1.03.02 1.6.1.58.1 1.1.2 1.73.33v-1.1c.08-.88-.17-1.67-.7-2.37-.74-.56-1.56-.8-2.46-.7-.54 0-1.03.07-1.6.2-.58.13-1.03.3-1.6.5l-.5.2h-.25c-.2 0-.33-.16-.33-.45v-.75c0-.18.04-.34.12-.5.1-.16.23-.26.4-.33.66-.3 1.2-.5 1.9-.67.77-.2 1.47-.3 2.3-.28 1.47-.13 2.78.26 3.9 1.2.93 1.05 1.34 2.28 1.22 3.67zm-6.08 2.28c.58 0 1.07-.1 1.6-.28.58-.2 1.03-.5 1.44-.96.25-.27.4-.57.5-.93.12-.45.16-.84.16-1.3V98c-.53-.1-.95-.17-1.44-.2h-1.4c-.82-.08-1.56.12-2.2.58-.55.45-.8 1.04-.75 1.73-.04.62.12 1.16.53 1.6.45.38 1 .52 1.56.45zm12 1.6c-.2.02-.42-.03-.58-.15-.17-.17-.25-.36-.33-.6l-3.5-11.5-.1-.62c0-.24.1-.37.36-.37h1.46c.2 0 .37.04.58.15.16.18.25.37.3.6l2.5 9.96 2.37-9.93c0-.24.1-.44.3-.6.16-.12.37-.16.58-.14h1.2c.23-.02.4.02.6.14.17.18.25.36.3.6l2.33 9.94 2.56-10c.04-.2.16-.4.33-.58h-.02c.17-.1.37-.17.58-.14h1.4c.16 0 .32.1.36.3v.31s0 .2-.12.35l-3.6 11.53c-.05.22-.14.42-.3.6-.2.1-.37.14-.57.13h-1.28c-.24.04-.45-.02-.6-.15-.18-.16-.26-.36-.3-.6l-2.3-9.6-2.3 9.6c-.04.24-.12.44-.3.6-.2.13-.4.2-.6.16zm19.2.38c-.8 0-1.5-.07-2.3-.25-.65-.13-1.14-.3-1.7-.6-.22-.1-.38-.23-.47-.42-.08-.14-.12-.28-.12-.43v-.75c0-.3.13-.46.33-.46h.3l.36.16c.57.23 1.02.4 1.6.5.6.14 1.15.2 1.8.2.8.05 1.48-.1 2.18-.5.5-.3.78-.8.74-1.4.04-.4-.12-.76-.37-1.04-.46-.4-.95-.65-1.53-.8l-2.17-.67c-.95-.26-1.73-.74-2.4-1.5-.48-.66-.72-1.36-.72-2.2 0-.58.12-1.07.4-1.6.3-.5.62-.88 1.07-1.2.5-.4 1-.62 1.6-.8.66-.17 1.2-.25 1.9-.24.32-.03.6-.03.98 0l1 .16.8.23.66.25c.16.1.28.22.45.38.08.15.12.3.12.5v.7c0 .3-.13.47-.37.47-.2-.03-.37-.08-.58-.18-.94-.43-1.8-.6-2.87-.58-.7-.04-1.3.1-1.97.4-.5.3-.74.8-.7 1.36 0 .4.12.76.45 1.05.5.4 1 .65 1.6.82l2.1.67c.94.24 1.68.7 2.3 1.44.5.64.7 1.3.7 2.1 0 .63-.13 1.17-.38 1.73-.28.55-.6.95-1.1 1.32-.5.4-1 .66-1.6.84-.74.23-1.4.33-2.14.34zM135 111.48c-5.6 3.82-11.36 5.58-18.15 5.56-8.55.05-15.83-2.74-22.16-8.45-.5-.42 0-1 .48-.68 7.07 4.05 14.02 5.9 22.2 5.9 6.1-.04 11.28-1.1 16.93-3.47.82-.35 1.52.55.7 1.14z" stroke="#fff" stroke-opacity="0" fill="#fff"/><path d="M137.06 109.2c-.65-.8-4.16-.38-5.75-.2-.47 0-.53-.36-.1-.67 2.8-1.97 7.4-1.4 8-.73.6.67-.15 5.28-2.78 7.48-.4.34-.78.15-.6-.28.54-1.52 1.86-4.83 1.24-5.6z" stroke="#fff" stroke-opacity="0" fill="#fff"/><use xlink:href="#a" transform="matrix(1,0,0,1,159.89630701940064,94) translate(0 19.555555555555557)"/><use xlink:href="#b" transform="matrix(1,0,0,1,159.89630701940064,94) translate(62.33333333333333 19.555555555555557)"/><path d="M453.15 82a8 8 0 0 1 8-8h836.75a8 8 0 0 1 8 8v52.8a8 8 0 0 1-8 8H461.15a8 8 0 0 1-8-8z" stroke="#000" stroke-opacity="0" stroke-width="2" fill="#fff" fill-opacity="0"/><use xlink:href="#c" transform="matrix(1,0,0,1,457.1465527853436,78) translate(136.08530864197547 41.43555555555553)"/><use xlink:href="#d" transform="matrix(1,0,0,1,457.1465527853436,78) translate(259.6186419753087 41.43555555555553)"/><use xlink:href="#e" transform="matrix(1,0,0,1,457.1465527853436,78) translate(499.1495061728395 41.43555555555553)"/><path d="M453.15 136.98a8 8 0 0 1 8-8h837.7a8 8 0 0 1 8 8v2.85a8 8 0 0 1-8 8h-837.7a8 8 0 0 1-8-8z" stroke="#000" stroke-opacity="0" stroke-width="2" fill="#fff" fill-opacity="0"/><path d="M1420 220h120v120h-120V220z" stroke="#fff" stroke-opacity="0" stroke-width="2" fill="#d86613"/><path d="M1516.8 320h-19.72c-.64 0-1.15-.32-1.4-.88l-27.92-58.32h-11.78c-.9 0-1.6-.72-1.6-1.6v-17.6c0-.88.7-1.6 1.6-1.6h24.65c.64 0 1.15.32 1.4.88l27.8 58.32h6.97c.9 0 1.6.72 1.6 1.6v17.6c0 .88-.7 1.6-1.6 1.6zm-18.7-3.2h17.1v-14.4h-6.4c-.64 0-1.15-.32-1.4-.88l-27.8-58.32h-22v14.4h11.2c.63 0 1.14.32 1.46.88z" stroke="#fff" stroke-opacity="0" stroke-width="2" fill="#fff"/><path d="M1463.96 320h-20.8c-.55 0-1.05-.3-1.37-.73-.33-.54-.33-1.12-.08-1.6l21.78-45.46c.24-.58.8-.92 1.4-.92.65 0 1.18.34 1.46.88l10.4 21.43c.26.43.26.92 0 1.4L1465.42 319c-.2.63-.77 1.02-1.44 1.02zm-18.24-3.22h17.24l10.6-22.36-8.6-17.88z" stroke="#fff" stroke-opacity="0" stroke-width="2" fill="#fff"/><use xlink:href="#f" transform="matrix(1,0,0,1,1390,349) translate(1.2067901234567842 23.11111111111111)"/><path d="M1420 620h120v120h-120V620z" stroke="#fff" stroke-opacity="0" stroke-width="2" fill="#d86613"/><path d="M1516.8 720h-19.72c-.64 0-1.15-.32-1.4-.88l-27.92-58.32h-11.78c-.9 0-1.6-.72-1.6-1.6v-17.6c0-.88.7-1.6 1.6-1.6h24.65c.64 0 1.15.32 1.4.88l27.8 58.32h6.97c.9 0 1.6.72 1.6 1.6v17.6c0 .88-.7 1.6-1.6 1.6zm-18.7-3.2h17.1v-14.4h-6.4c-.64 0-1.15-.32-1.4-.88l-27.8-58.32h-22v14.4h11.2c.63 0 1.14.32 1.46.88z" stroke="#fff" stroke-opacity="0" stroke-width="2" fill="#fff"/><path d="M1463.96 720h-20.8c-.55 0-1.05-.3-1.37-.73-.33-.54-.33-1.12-.08-1.6l21.78-45.46c.24-.58.8-.92 1.4-.92.65 0 1.18.34 1.46.88l10.4 21.43c.26.43.26.92 0 1.4L1465.42 719c-.2.63-.77 1.02-1.44 1.02zm-18.24-3.22h17.24l10.6-22.36-8.6-17.88z" stroke="#fff" stroke-opacity="0" stroke-width="2" fill="#fff"/><use xlink:href="#g" transform="matrix(1,0,0,1,1390,748.9999999999998) translate(-7.580246913580254 23.11111111111111)"/><path d="M840 420h120v120H840V420z" stroke="#fff" stroke-opacity="0" fill="#693cc5"/><path d="M917.6 518.42c-.35 0-.64-.15-.93-.3-.43-.3-.67-.77-.67-1.3v-73.63c0-.55.3-1.08.77-1.4.48-.3 1.08-.3 1.6-.07l20.8 10.22c.56.23.9.77.9 1.38v56.56c.02.76-.4 1.37-1.1 1.6l-20.8 6.92h-.56zm1.63-72.62v68.78l17.6-5.84v-54.4zM882.4 518.42h-.52l-20.8-6.92c-.67-.23-1.1-.92-1.08-1.6v-56.57c0-.6.33-1.15.9-1.38l20.8-10.22c.52-.23 1.1-.23 1.6.08.48.3.75.85.75 1.4v73.6c0 .54-.24 1-.67 1.3-.3.24-.6.32-1 .32zm-19.2-9.6l17.6 5.83V445.8l-17.6 8.6z" stroke="#fff" stroke-opacity="0" fill="#fff"/><path d="M916 464h-4.8v-3.2h4.8zm-9.6 0h-4.8v-3.2h4.8zm-9.6 0H892v-3.2h4.8zm-9.6 0h-4.8v-3.2h4.8zM916 499.2h-4.8V496h4.8zm-9.6 0h-4.8V496h4.8zm-9.6 0H892V496h4.8zm-9.6 0h-4.8V496h4.8zM892.98 485.5l-6.02-5.13c-.67-.57-.75-1.6-.18-2.26l.18-.17 6-5.13 2.08 2.43-4.58 3.97 4.58 3.92zM907.04 485.5l-2.08-2.42 4.57-3.88-4.6-3.9 2.1-2.5 6 5.12c.68.57.76 1.6.2 2.26-.07.06-.12.12-.2.17z" stroke="#fff" stroke-opacity="0" fill="#fff"/><path d="M895.3 488.87l6.35-18.8 3.03 1.03-6.35 18.8-3.04-1.03z" stroke="#fff" stroke-opacity="0" stroke-width=".32" fill="#fff"/><use xlink:href="#h" transform="matrix(1,0,0,1,809.9999999999993,549) translate(5.901234567901241 23.11111111111111)"/><use xlink:href="#i" transform="matrix(1,0,0,1,809.9999999999993,549) translate(126.03086419753087 23.11111111111111)"/><use xlink:href="#j" transform="matrix(1,0,0,1,809.9999999999993,549) translate(30.657407407407412 57.77777777777777)"/><path d="M436.56 660h-33.12L380 683.44v33.12L403.44 740h33.12L460 716.56v-33.12zm20 55.12l-21.44 21.44h-30.24l-21.44-21.44v-30.24l21.44-21.44h30.24l21.44 21.44z" stroke="#fff" stroke-opacity="0" stroke-width="3" fill="#693cc5"/><path d="M407.37 672.62l-13.9 12.14c-.8.5-1.26 1.28-1.3 2.22v26.27c.02 1 .5 1.84 1.34 2.3l13.43 11.8.44.27c.6.22 1.1.33 1.75.33.48 0 .9-.06 1.34-.28l.88-.5v-54.1l-.9-.5c-1.04-.4-2.05-.4-3.07.05zm.46 50.88l-12.2-10.7v-25.37l12.2-10.7zM432.62 672.58c-1-.38-2-.38-3.02 0l-.9.5v54.1l.88.5c.44.2.86.27 1.34.27.63 0 1.16-.1 1.74-.33l13.92-12.13c.8-.5 1.23-1.3 1.25-2.24V687c-.02-1-.5-1.84-1.34-2.28l-13.42-11.8zm11.72 40.23l-12.16 10.7v-46.74l12.16 10.68zM413.04 698.26h3.48v3.48h-3.48v-3.48zM418.26 698.26h3.48v3.48h-3.48v-3.48zM423.48 698.26h3.48v3.48h-3.48v-3.48z" stroke="#fff" stroke-opacity="0" stroke-width="3" fill="#693cc5"/><use xlink:href="#k" transform="matrix(1,0,0,1,350,748.9999999999998) translate(30.71913580246914 23.11111111111111)"/><use xlink:href="#l" transform="matrix(1,0,0,1,350,748.9999999999998) translate(3.555555555555543 57.77777777777777)"/><path d="M436.56 220h-33.12L380 243.44v33.12L403.44 300h33.12L460 276.56v-33.12zm20 55.12l-21.44 21.44h-30.24l-21.44-21.44v-30.24l21.44-21.44h30.24l21.44 21.44z" stroke="#fff" stroke-opacity="0" stroke-width="3" fill="#693cc5"/><path d="M407.37 232.62l-13.9 12.14c-.8.5-1.26 1.28-1.3 2.22v26.28c.02 1 .5 1.83 1.34 2.28l13.43 11.8.44.28c.6.22 1.1.33 1.75.33.48 0 .9-.06 1.34-.28l.88-.5v-54.1l-.9-.5c-1.04-.4-2.05-.4-3.07.05zm.46 50.88l-12.2-10.7v-25.37l12.2-10.7zM432.62 232.58c-1-.4-2-.4-3.02 0l-.9.5v54.1l.88.5c.44.2.86.27 1.34.27.63 0 1.16-.1 1.74-.33l13.92-12.13c.8-.5 1.23-1.3 1.25-2.24V247c-.02-1-.5-1.84-1.34-2.28l-13.42-11.8zm11.72 40.23l-12.16 10.7v-46.74l12.16 10.68zM413.04 258.26h3.48v3.48h-3.48v-3.48zM418.26 258.26h3.48v3.48h-3.48v-3.48zM423.48 258.26h3.48v3.48h-3.48v-3.48z" stroke="#fff" stroke-opacity="0" stroke-width="3" fill="#693cc5"/><use xlink:href="#m" transform="matrix(1,0,0,1,350,309) translate(40.348765432098766 23.11111111111111)"/><use xlink:href="#n" transform="matrix(1,0,0,1,350,309) translate(12.342592592592588 57.77777777777777)"/><path d="M961 480h223a6 6 0 0 1 6 6v188a6 6 0 0 0 6 6h205.5" stroke="#635dff" stroke-width="2" fill="none"/><path d="M961.03 481H960v-2h1.03z" stroke="#635dff" stroke-width=".05" fill="#635dff"/><path d="M1416.76 680l-14.26 4.63v-9.26z" stroke="#635dff" stroke-width="2" fill="#635dff"/><path d="M961 480h223a6 6 0 0 0 6-6V286a6 6 0 0 1 6-6h205.5" stroke="#635dff" stroke-width="2" fill="none"/><path d="M961.03 481H960v-2h1.03z" stroke="#635dff" stroke-width=".05" fill="#635dff"/><path d="M1416.76 280l-14.26 4.63v-9.26z" stroke="#635dff" stroke-width="2" fill="#635dff"/><path d="M461 700h183a6 6 0 0 0 6-6V486a6 6 0 0 1 6-6h165.5" stroke="#1071e5" stroke-width="2" fill="none"/><path d="M461.03 701H460v-2h1.03z" stroke="#1071e5" stroke-width=".05" fill="#1071e5"/><path d="M836.76 480l-14.26 4.63v-9.26z" stroke="#1071e5" stroke-width="2" fill="#1071e5"/><path d="M461 260h183a6 6 0 0 1 6 6v208a6 6 0 0 0 6 6h165.5" stroke="#1071e5" stroke-width="2" fill="none"/><path d="M461.03 261H460v-2h1.03z" stroke="#1071e5" stroke-width=".05" fill="#1071e5"/><path d="M836.76 480l-14.26 4.63v-9.26z" stroke="#1071e5" stroke-width="2" fill="#1071e5"/><defs><path fill="#cc4e00" d="M199 0l-22-63H83L61 0H9l90-248h61L250 0h-51zm-33-102l-36-108c-10 38-24 72-36 108h72" id="o"/><path fill="#cc4e00" d="M275 0h-61l-44-196L126 0H64L0-248h53L97-49l45-199h58l43 199 44-199h52" id="p"/><path fill="#cc4e00" d="M169-182c-1-43-94-46-97-3 18 66 151 10 154 114 3 95-165 93-204 36-6-8-10-19-12-30l50-8c3 46 112 56 116 5-17-69-150-10-154-114-4-87 153-88 188-35 5 8 8 18 10 28" id="q"/><g id="a"><use transform="matrix(0.06790123456790123,0,0,0.06790123456790123,0,0)" xlink:href="#o"/><use transform="matrix(0.06790123456790123,0,0,0.06790123456790123,16.228395061728392,0)" xlink:href="#p"/><use transform="matrix(0.06790123456790123,0,0,0.06790123456790123,39.24691358024691,0)" xlink:href="#q"/></g><path fill="#cc4e00" d="M67-125c0 53 21 87 73 88 37 1 54-22 65-47l45 17C233-25 199 4 140 4 58 4 20-42 15-125 8-235 124-281 211-232c18 10 29 29 36 50l-46 12c-8-25-30-41-62-41-52 0-71 34-72 86" id="r"/><path fill="#cc4e00" d="M25 0v-261h50V0H25" id="s"/><path fill="#cc4e00" d="M110-194c64 0 96 36 96 99 0 64-35 99-97 99-61 0-95-36-95-99 0-62 34-99 96-99zm-1 164c35 0 45-28 45-65 0-40-10-65-43-65-34 0-45 26-45 65 0 36 10 65 43 65" id="t"/><path fill="#cc4e00" d="M85 4C-2 5 27-109 22-190h50c7 57-23 150 33 157 60-5 35-97 40-157h50l1 190h-47c-2-12 1-28-3-38-12 25-28 42-61 42" id="u"/><path fill="#cc4e00" d="M88-194c31-1 46 15 58 34l-1-101h50l1 261h-48c-2-10 0-23-3-31C134-8 116 4 84 4 32 4 16-41 15-95c0-56 19-97 73-99zm17 164c33 0 40-30 41-66 1-37-9-64-41-64s-38 30-39 65c0 43 13 65 39 65" id="v"/><g id="b"><use transform="matrix(0.06790123456790123,0,0,0.06790123456790123,0,0)" xlink:href="#r"/><use transform="matrix(0.06790123456790123,0,0,0.06790123456790123,17.586419753086417,0)" xlink:href="#s"/><use transform="matrix(0.06790123456790123,0,0,0.06790123456790123,24.37654320987654,0)" xlink:href="#t"/><use transform="matrix(0.06790123456790123,0,0,0.06790123456790123,39.24691358024691,0)" xlink:href="#u"/><use transform="matrix(0.06790123456790123,0,0,0.06790123456790123,54.11728395061728,0)" xlink:href="#v"/></g><path fill="#4c535d" d="M199 0l-22-63H83L61 0H9l90-248h61L250 0h-51zm-33-102l-36-108c-10 38-24 72-36 108h72" id="w"/><path fill="#4c535d" d="M275 0h-61l-44-196L126 0H64L0-248h53L97-49l45-199h58l43 199 44-199h52" id="x"/><path fill="#4c535d" d="M169-182c-1-43-94-46-97-3 18 66 151 10 154 114 3 95-165 93-204 36-6-8-10-19-12-30l50-8c3 46 112 56 116 5-17-69-150-10-154-114-4-87 153-88 188-35 5 8 8 18 10 28" id="y"/><g id="c"><use transform="matrix(0.13456790123456783,0,0,0.13456790123456783,0,0)" xlink:href="#w"/><use transform="matrix(0.13456790123456783,0,0,0.13456790123456783,32.161728395061715,0)" xlink:href="#x"/><use transform="matrix(0.13456790123456783,0,0,0.13456790123456783,77.78024691358021,0)" xlink:href="#y"/></g><path fill="#4c535d" d="M185-48c-13 30-37 53-82 52C43 2 14-33 14-96s30-98 90-98c62 0 83 45 84 108H66c0 31 8 55 39 56 18 0 30-7 34-22zm-45-69c5-46-57-63-70-21-2 6-4 13-4 21h74" id="z"/><path fill="#4c535d" d="M135-150c-39-12-60 13-60 57V0H25l-1-190h47c2 13-1 29 3 40 6-28 27-53 61-41v41" id="A"/><path fill="#4c535d" d="M128 0H69L1-190h53L99-40l48-150h52" id="B"/><path fill="#4c535d" d="M25 0v-261h50V0H25" id="C"/><path fill="#4c535d" d="M137-138c1-29-70-34-71-4 15 46 118 7 119 86 1 83-164 76-172 9l43-7c4 19 20 25 44 25 33 8 57-30 24-41C81-84 22-81 20-136c-2-80 154-74 161-7" id="D"/><g id="d"><use transform="matrix(0.13456790123456783,0,0,0.13456790123456783,0,0)" xlink:href="#y"/><use transform="matrix(0.13456790123456783,0,0,0.13456790123456783,32.296296296296276,0)" xlink:href="#z"/><use transform="matrix(0.13456790123456783,0,0,0.13456790123456783,59.209876543209845,0)" xlink:href="#A"/><use transform="matrix(0.13456790123456783,0,0,0.13456790123456783,78.04938271604934,0)" xlink:href="#B"/><use transform="matrix(0.13456790123456783,0,0,0.13456790123456783,104.9629629629629,0)" xlink:href="#z"/><use transform="matrix(0.13456790123456783,0,0,0.13456790123456783,131.87654320987647,0)" xlink:href="#C"/><use transform="matrix(0.13456790123456783,0,0,0.13456790123456783,145.33333333333326,0)" xlink:href="#z"/><use transform="matrix(0.13456790123456783,0,0,0.13456790123456783,172.24691358024683,0)" xlink:href="#D"/><use transform="matrix(0.13456790123456783,0,0,0.13456790123456783,199.1604938271604,0)" xlink:href="#D"/></g><path fill="#4c535d" d="M135-194c52 0 70 43 70 98 0 56-19 99-73 100-30 1-46-15-58-35L72 0H24l1-261h50v104c11-23 29-37 60-37zM114-30c31 0 40-27 40-66 0-37-7-63-39-63s-41 28-41 65c0 36 8 64 40 64" id="E"/><path fill="#4c535d" d="M114-157C55-157 80-60 75 0H25v-261h50l-1 109c12-26 28-41 61-42 86-1 58 113 63 194h-50c-7-57 23-157-34-157" id="F"/><path fill="#4c535d" d="M110-194c64 0 96 36 96 99 0 64-35 99-97 99-61 0-95-36-95-99 0-62 34-99 96-99zm-1 164c35 0 45-28 45-65 0-40-10-65-43-65-34 0-45 26-45 65 0 36 10 65 43 65" id="G"/><path fill="#4c535d" d="M147 0L96-86 75-71V0H25v-261h50v150l67-79h53l-66 74L201 0h-54" id="H"/><g id="e"><use transform="matrix(0.13456790123456783,0,0,0.13456790123456783,0,0)" xlink:href="#x"/><use transform="matrix(0.13456790123456783,0,0,0.13456790123456783,44.67654320987652,0)" xlink:href="#z"/><use transform="matrix(0.13456790123456783,0,0,0.13456790123456783,71.59012345679008,0)" xlink:href="#E"/><use transform="matrix(0.13456790123456783,0,0,0.13456790123456783,101.06049382716043,0)" xlink:href="#F"/><use transform="matrix(0.13456790123456783,0,0,0.13456790123456783,130.53086419753078,0)" xlink:href="#G"/><use transform="matrix(0.13456790123456783,0,0,0.13456790123456783,160.00123456790112,0)" xlink:href="#G"/><use transform="matrix(0.13456790123456783,0,0,0.13456790123456783,189.47160493827147,0)" xlink:href="#H"/></g><path fill="#cc4e00" d="M195-6C206 82 75 100 31 46c-4-6-6-13-8-21l49-6c3 16 16 24 34 25 40 0 42-37 40-79-11 22-30 35-61 35-53 0-70-43-70-97 0-56 18-96 73-97 30 0 46 14 59 34l2-30h47zm-90-29c32 0 41-27 41-63 0-35-9-62-40-62-32 0-39 29-40 63 0 36 9 62 39 62" id="I"/><path fill="#cc4e00" d="M185-48c-13 30-37 53-82 52C43 2 14-33 14-96s30-98 90-98c62 0 83 45 84 108H66c0 31 8 55 39 56 18 0 30-7 34-22zm-45-69c5-46-57-63-70-21-2 6-4 13-4 21h74" id="J"/><path fill="#cc4e00" d="M115-3C79 11 28 4 28-45v-112H4v-33h27l15-45h31v45h36v33H77v99c-1 23 16 31 38 25v30" id="K"/><path fill="#cc4e00" d="M14-72v-43h91v43H14" id="L"/><path fill="#cc4e00" d="M231 0h-52l-39-155L100 0H48L-1-190h46L77-45c9-52 24-97 36-145h53l37 145 32-145h46" id="M"/><path fill="#cc4e00" d="M135-194c52 0 70 43 70 98 0 56-19 99-73 100-30 1-46-15-58-35L72 0H24l1-261h50v104c11-23 29-37 60-37zM114-30c31 0 40-27 40-66 0-37-7-63-39-63s-41 28-41 65c0 36 8 64 40 64" id="N"/><path fill="#cc4e00" d="M114-157C55-157 80-60 75 0H25v-261h50l-1 109c12-26 28-41 61-42 86-1 58 113 63 194h-50c-7-57 23-157-34-157" id="O"/><path fill="#cc4e00" d="M147 0L96-86 75-71V0H25v-261h50v150l67-79h53l-66 74L201 0h-54" id="P"/><g id="f"><use transform="matrix(0.08024691358024691,0,0,0.08024691358024691,0,0)" xlink:href="#I"/><use transform="matrix(0.08024691358024691,0,0,0.08024691358024691,17.574074074074073,0)" xlink:href="#J"/><use transform="matrix(0.08024691358024691,0,0,0.08024691358024691,33.623456790123456,0)" xlink:href="#K"/><use transform="matrix(0.08024691358024691,0,0,0.08024691358024691,43.172839506172835,0)" xlink:href="#L"/><use transform="matrix(0.08024691358024691,0,0,0.08024691358024691,52.72222222222221,0)" xlink:href="#M"/><use transform="matrix(0.08024691358024691,0,0,0.08024691358024691,75.19135802469135,0)" xlink:href="#J"/><use transform="matrix(0.08024691358024691,0,0,0.08024691358024691,91.24074074074073,0)" xlink:href="#N"/><use transform="matrix(0.08024691358024691,0,0,0.08024691358024691,108.81481481481481,0)" xlink:href="#O"/><use transform="matrix(0.08024691358024691,0,0,0.08024691358024691,126.38888888888889,0)" xlink:href="#t"/><use transform="matrix(0.08024691358024691,0,0,0.08024691358024691,143.96296296296296,0)" xlink:href="#t"/><use transform="matrix(0.08024691358024691,0,0,0.08024691358024691,161.53703703703704,0)" xlink:href="#P"/></g><path fill="#cc4e00" d="M135-194c53 0 70 44 70 98 0 56-19 98-73 100-31 1-45-17-59-34 3 33 2 69 2 105H25l-1-265h48c2 10 0 23 3 31 11-24 29-35 60-35zM114-30c33 0 39-31 40-66 0-38-9-64-40-64-56 0-55 130 0 130" id="Q"/><path fill="#cc4e00" d="M137-138c1-29-70-34-71-4 15 46 118 7 119 86 1 83-164 76-172 9l43-7c4 19 20 25 44 25 33 8 57-30 24-41C81-84 22-81 20-136c-2-80 154-74 161-7" id="R"/><g id="g"><use transform="matrix(0.08024691358024691,0,0,0.08024691358024691,0,0)" xlink:href="#Q"/><use transform="matrix(0.08024691358024691,0,0,0.08024691358024691,17.574074074074073,0)" xlink:href="#t"/><use transform="matrix(0.08024691358024691,0,0,0.08024691358024691,35.148148148148145,0)" xlink:href="#R"/><use transform="matrix(0.08024691358024691,0,0,0.08024691358024691,51.197530864197525,0)" xlink:href="#K"/><use transform="matrix(0.08024691358024691,0,0,0.08024691358024691,60.74691358024691,0)" xlink:href="#L"/><use transform="matrix(0.08024691358024691,0,0,0.08024691358024691,70.29629629629629,0)" xlink:href="#M"/><use transform="matrix(0.08024691358024691,0,0,0.08024691358024691,92.76543209876543,0)" xlink:href="#J"/><use transform="matrix(0.08024691358024691,0,0,0.08024691358024691,108.81481481481481,0)" xlink:href="#N"/><use transform="matrix(0.08024691358024691,0,0,0.08024691358024691,126.38888888888889,0)" xlink:href="#O"/><use transform="matrix(0.08024691358024691,0,0,0.08024691358024691,143.96296296296296,0)" xlink:href="#t"/><use transform="matrix(0.08024691358024691,0,0,0.08024691358024691,161.53703703703704,0)" xlink:href="#t"/><use transform="matrix(0.08024691358024691,0,0,0.08024691358024691,179.11111111111111,0)" xlink:href="#P"/></g><path fill="#635dff" d="M199 0l-22-63H83L61 0H9l90-248h61L250 0h-51zm-33-102l-36-108c-10 38-24 72-36 108h72" id="S"/><path fill="#635dff" d="M220-157c-53 9-28 100-34 157h-49v-107c1-27-5-49-29-50C55-147 81-57 75 0H25l-1-190h47c2 12-1 28 3 38 10-53 101-56 108 0 13-22 24-43 59-42 82 1 51 116 57 194h-49v-107c-1-25-5-48-29-50" id="T"/><path fill="#635dff" d="M133-34C117-15 103 5 69 4 32 3 11-16 11-54c-1-60 55-63 116-61 1-26-3-47-28-47-18 1-26 9-28 27l-52-2c7-38 36-58 82-57s74 22 75 68l1 82c-1 14 12 18 25 15v27c-30 8-71 5-69-32zm-48 3c29 0 43-24 42-57-32 0-66-3-65 30 0 17 8 27 23 27" id="U"/><path fill="#635dff" d="M12 0v-35l95-120H19v-35h142v35L67-36h103V0H12" id="V"/><path fill="#635dff" d="M110-194c64 0 96 36 96 99 0 64-35 99-97 99-61 0-95-36-95-99 0-62 34-99 96-99zm-1 164c35 0 45-28 45-65 0-40-10-65-43-65-34 0-45 26-45 65 0 36 10 65 43 65" id="W"/><path fill="#635dff" d="M135-194c87-1 58 113 63 194h-50c-7-57 23-157-34-157-59 0-34 97-39 157H25l-1-190h47c2 12-1 28 3 38 12-26 28-41 61-42" id="X"/><g id="h"><use transform="matrix(0.08024691358024691,0,0,0.08024691358024691,0,0)" xlink:href="#S"/><use transform="matrix(0.08024691358024691,0,0,0.08024691358024691,20.78395061728395,0)" xlink:href="#T"/><use transform="matrix(0.08024691358024691,0,0,0.08024691358024691,46.46296296296296,0)" xlink:href="#U"/><use transform="matrix(0.08024691358024691,0,0,0.08024691358024691,62.51234567901234,0)" xlink:href="#V"/><use transform="matrix(0.08024691358024691,0,0,0.08024691358024691,76.95679012345678,0)" xlink:href="#W"/><use transform="matrix(0.08024691358024691,0,0,0.08024691358024691,94.53086419753086,0)" xlink:href="#X"/></g><path fill="#635dff" d="M24-248c93 1 206-16 204 79-1 75-69 88-152 82V0H24v-248zm52 121c47 0 100 7 100-41 0-47-54-39-100-39v80" id="Y"/><path fill="#635dff" d="M24 0v-248h52V0H24" id="Z"/><g id="i"><use transform="matrix(0.08024691358024691,0,0,0.08024691358024691,0,0)" xlink:href="#S"/><use transform="matrix(0.08024691358024691,0,0,0.08024691358024691,20.78395061728395,0)" xlink:href="#Y"/><use transform="matrix(0.08024691358024691,0,0,0.08024691358024691,40.04320987654321,0)" xlink:href="#Z"/></g><path fill="#635dff" d="M67-125c0 54 23 88 75 88 28 0 53-7 68-21v-34h-60v-39h108v91C232-14 192 4 140 4 58 4 20-42 15-125 8-236 126-280 215-234c19 10 29 26 37 47l-47 15c-11-23-29-39-63-39-53 1-75 33-75 86" id="aa"/><path fill="#635dff" d="M115-3C79 11 28 4 28-45v-112H4v-33h27l15-45h31v45h36v33H77v99c-1 23 16 31 38 25v30" id="ab"/><path fill="#635dff" d="M185-48c-13 30-37 53-82 52C43 2 14-33 14-96s30-98 90-98c62 0 83 45 84 108H66c0 31 8 55 39 56 18 0 30-7 34-22zm-45-69c5-46-57-63-70-21-2 6-4 13-4 21h74" id="ac"/><path fill="#635dff" d="M231 0h-52l-39-155L100 0H48L-1-190h46L77-45c9-52 24-97 36-145h53l37 145 32-145h46" id="ad"/><path fill="#635dff" d="M123 10C108 53 80 86 19 72V37c35 8 53-11 59-39L3-190h52l48 148c12-52 28-100 44-148h51" id="ae"/><g id="j"><use transform="matrix(0.08024691358024691,0,0,0.08024691358024691,0,0)" xlink:href="#aa"/><use transform="matrix(0.08024691358024691,0,0,0.08024691358024691,22.469135802469136,0)" xlink:href="#U"/><use transform="matrix(0.08024691358024691,0,0,0.08024691358024691,38.51851851851852,0)" xlink:href="#ab"/><use transform="matrix(0.08024691358024691,0,0,0.08024691358024691,48.0679012345679,0)" xlink:href="#ac"/><use transform="matrix(0.08024691358024691,0,0,0.08024691358024691,64.11728395061728,0)" xlink:href="#ad"/><use transform="matrix(0.08024691358024691,0,0,0.08024691358024691,86.58641975308642,0)" xlink:href="#U"/><use transform="matrix(0.08024691358024691,0,0,0.08024691358024691,102.6358024691358,0)" xlink:href="#ae"/></g><path fill="#6f7681" d="M24-248c93 1 206-16 204 79-1 75-69 88-152 82V0H24v-248zm52 121c47 0 100 7 100-41 0-47-54-39-100-39v80" id="af"/><path fill="#6f7681" d="M140-251c80 0 125 45 125 126S219 4 139 4C58 4 15-44 15-125s44-126 125-126zm-1 214c52 0 73-35 73-88 0-50-21-86-72-86-52 0-73 35-73 86s22 88 72 88" id="ag"/><path fill="#6f7681" d="M169-182c-1-43-94-46-97-3 18 66 151 10 154 114 3 95-165 93-204 36-6-8-10-19-12-30l50-8c3 46 112 56 116 5-17-69-150-10-154-114-4-87 153-88 188-35 5 8 8 18 10 28" id="ah"/><path fill="#6f7681" d="M136-208V0H84v-208H4v-40h212v40h-80" id="ai"/><g id="k"><use transform="matrix(0.08024691358024691,0,0,0.08024691358024691,0,0)" xlink:href="#af"/><use transform="matrix(0.08024691358024691,0,0,0.08024691358024691,19.25925925925926,0)" xlink:href="#ag"/><use transform="matrix(0.08024691358024691,0,0,0.08024691358024691,41.72839506172839,0)" xlink:href="#ah"/><use transform="matrix(0.08024691358024691,0,0,0.08024691358024691,60.98765432098765,0)" xlink:href="#ai"/></g><path fill="#6f7681" d="M4 7l51-268h42L46 7H4" id="aj"/><path fill="#6f7681" d="M231 0h-52l-39-155L100 0H48L-1-190h46L77-45c9-52 24-97 36-145h53l37 145 32-145h46" id="ak"/><path fill="#6f7681" d="M185-48c-13 30-37 53-82 52C43 2 14-33 14-96s30-98 90-98c62 0 83 45 84 108H66c0 31 8 55 39 56 18 0 30-7 34-22zm-45-69c5-46-57-63-70-21-2 6-4 13-4 21h74" id="al"/><path fill="#6f7681" d="M135-194c52 0 70 43 70 98 0 56-19 99-73 100-30 1-46-15-58-35L72 0H24l1-261h50v104c11-23 29-37 60-37zM114-30c31 0 40-27 40-66 0-37-7-63-39-63s-41 28-41 65c0 36 8 64 40 64" id="am"/><path fill="#6f7681" d="M114-157C55-157 80-60 75 0H25v-261h50l-1 109c12-26 28-41 61-42 86-1 58 113 63 194h-50c-7-57 23-157-34-157" id="an"/><path fill="#6f7681" d="M110-194c64 0 96 36 96 99 0 64-35 99-97 99-61 0-95-36-95-99 0-62 34-99 96-99zm-1 164c35 0 45-28 45-65 0-40-10-65-43-65-34 0-45 26-45 65 0 36 10 65 43 65" id="ao"/><path fill="#6f7681" d="M147 0L96-86 75-71V0H25v-261h50v150l67-79h53l-66 74L201 0h-54" id="ap"/><g id="l"><use transform="matrix(0.08024691358024691,0,0,0.08024691358024691,0,0)" xlink:href="#aj"/><use transform="matrix(0.08024691358024691,0,0,0.08024691358024691,8.024691358024691,0)" xlink:href="#ak"/><use transform="matrix(0.08024691358024691,0,0,0.08024691358024691,30.49382716049383,0)" xlink:href="#al"/><use transform="matrix(0.08024691358024691,0,0,0.08024691358024691,46.543209876543216,0)" xlink:href="#am"/><use transform="matrix(0.08024691358024691,0,0,0.08024691358024691,64.11728395061729,0)" xlink:href="#an"/><use transform="matrix(0.08024691358024691,0,0,0.08024691358024691,81.69135802469137,0)" xlink:href="#ao"/><use transform="matrix(0.08024691358024691,0,0,0.08024691358024691,99.26543209876544,0)" xlink:href="#ao"/><use transform="matrix(0.08024691358024691,0,0,0.08024691358024691,116.83950617283952,0)" xlink:href="#ap"/></g><path fill="#6f7681" d="M67-125c0 54 23 88 75 88 28 0 53-7 68-21v-34h-60v-39h108v91C232-14 192 4 140 4 58 4 20-42 15-125 8-236 126-280 215-234c19 10 29 26 37 47l-47 15c-11-23-29-39-63-39-53 1-75 33-75 86" id="aq"/><path fill="#6f7681" d="M24 0v-248h195v40H76v63h132v40H76v65h150V0H24" id="ar"/><g id="m"><use transform="matrix(0.08024691358024691,0,0,0.08024691358024691,0,0)" xlink:href="#aq"/><use transform="matrix(0.08024691358024691,0,0,0.08024691358024691,22.469135802469136,0)" xlink:href="#ar"/><use transform="matrix(0.08024691358024691,0,0,0.08024691358024691,41.72839506172839,0)" xlink:href="#ai"/></g><g id="n"><use transform="matrix(0.08024691358024691,0,0,0.08024691358024691,0,0)" xlink:href="#aj"/><use transform="matrix(0.08024691358024691,0,0,0.08024691358024691,8.024691358024691,0)" xlink:href="#ak"/><use transform="matrix(0.08024691358024691,0,0,0.08024691358024691,30.49382716049383,0)" xlink:href="#al"/><use transform="matrix(0.08024691358024691,0,0,0.08024691358024691,46.543209876543216,0)" xlink:href="#am"/><use transform="matrix(0.08024691358024691,0,0,0.08024691358024691,64.11728395061729,0)" xlink:href="#ao"/><use transform="matrix(0.08024691358024691,0,0,0.08024691358024691,81.69135802469137,0)" xlink:href="#ao"/><use transform="matrix(0.08024691358024691,0,0,0.08024691358024691,99.26543209876544,0)" xlink:href="#ap"/></g></defs></g></svg>