<svg xmlns="http://www.w3.org/2000/svg" xmlns:xlink="http://www.w3.org/1999/xlink" xmlns:lucid="lucid" width="1996.6" height="700.75"><g transform="translate(0 0)" lucid:page-tab-id="yqi1dByDWfrP"><path d="M88.9 74H1900v546H88.9z" stroke="#232f3e" stroke-width="2" fill-opacity="0"/><path d="M88.9 74h56v56h-56V74z" stroke="#fff" stroke-opacity="0" fill="#232f3e"/><path d="M107.12 99.87c-.04.48.04.87.16 1.34.13.4.3.7.5 1.08.04.1.08.2.08.33 0 .2-.12.36-.3.46l-.93.62c-.13.08-.25.13-.37.13-.17 0-.33-.06-.45-.2-.2-.2-.36-.43-.53-.7-.16-.25-.28-.53-.45-.86-1.1 1.37-2.63 2.1-4.4 2.06-1.14.06-2.13-.3-2.95-1.08-.78-.8-1.15-1.76-1.1-2.85-.05-1.23.4-2.28 1.35-3.08 1.06-.85 2.3-1.23 3.65-1.16.58 0 1.03.02 1.6.1.58.1 1.1.2 1.73.33v-1.1c.08-.88-.17-1.67-.7-2.37-.74-.56-1.56-.8-2.46-.7-.54 0-1.03.07-1.6.2-.58.13-1.03.3-1.6.5l-.5.2h-.25c-.2 0-.33-.16-.33-.45v-.75c0-.18.04-.34.12-.5.1-.16.23-.26.4-.33.66-.3 1.2-.5 1.9-.67.77-.2 1.47-.3 2.3-.28 1.47-.13 2.78.26 3.9 1.2.93 1.05 1.34 2.28 1.22 3.67zm-6.08 2.28c.58 0 1.07-.1 1.6-.28.58-.2 1.03-.5 1.44-.96.25-.27.4-.57.5-.93.12-.45.16-.84.16-1.3V98c-.53-.1-.95-.17-1.44-.2h-1.4c-.82-.08-1.56.12-2.2.58-.55.45-.8 1.04-.75 1.73-.04.62.12 1.16.53 1.6.45.38 1 .52 1.56.45zm12 1.6c-.2.02-.42-.03-.58-.15-.17-.17-.25-.36-.33-.6l-3.5-11.5-.1-.62c0-.24.1-.37.36-.37h1.46c.2 0 .37.04.58.15.16.18.25.37.3.6l2.5 9.96 2.37-9.93c0-.24.1-.44.3-.6.16-.12.37-.16.58-.14h1.2c.23-.02.4.02.6.14.17.18.25.36.3.6l2.33 9.94 2.56-10c.04-.2.16-.4.33-.58h-.02c.17-.1.37-.17.58-.14h1.4c.16 0 .32.1.36.3v.31s0 .2-.12.35l-3.6 11.53c-.05.22-.14.42-.3.6-.2.1-.37.14-.57.13h-1.28c-.24.04-.45-.02-.6-.15-.18-.16-.26-.36-.3-.6l-2.3-9.6-2.3 9.6c-.04.24-.12.44-.3.6-.2.13-.4.2-.6.16zm19.2.38c-.8 0-1.5-.07-2.3-.25-.65-.13-1.14-.3-1.7-.6-.22-.1-.38-.23-.47-.42-.08-.14-.12-.28-.12-.43v-.75c0-.3.13-.46.33-.46h.3l.36.16c.57.23 1.02.4 1.6.5.6.14 1.15.2 1.8.2.8.05 1.48-.1 2.18-.5.5-.3.78-.8.74-1.4.04-.4-.12-.76-.37-1.04-.46-.4-.95-.65-1.53-.8l-2.17-.67c-.95-.26-1.73-.74-2.4-1.5-.48-.66-.72-1.36-.72-2.2 0-.58.12-1.07.4-1.6.3-.5.62-.88 1.07-1.2.5-.4 1-.62 1.6-.8.66-.17 1.2-.25 1.9-.24.32-.03.6-.03.98 0l1 .16.8.23.66.25c.16.1.28.22.45.38.08.15.12.3.12.5v.7c0 .3-.13.47-.37.47-.2-.03-.37-.08-.58-.18-.94-.43-1.8-.6-2.87-.58-.7-.04-1.3.1-1.97.4-.5.3-.74.8-.7 1.36 0 .4.12.76.45 1.05.5.4 1 .65 1.6.82l2.1.67c.94.24 1.68.7 2.3 1.44.5.64.7 1.3.7 2.1 0 .63-.13 1.17-.38 1.73-.28.55-.6.95-1.1 1.32-.5.4-1 .66-1.6.84-.74.23-1.4.33-2.14.34zM135 111.48c-5.6 3.82-11.36 5.58-18.15 5.56-8.55.05-15.83-2.74-22.16-8.45-.5-.42 0-1 .48-.68 7.07 4.05 14.02 5.9 22.2 5.9 6.1-.04 11.28-1.1 16.93-3.47.82-.35 1.52.55.7 1.14z" stroke="#fff" stroke-opacity="0" fill="#fff"/><path d="M137.06 109.2c-.65-.8-4.16-.38-5.75-.2-.47 0-.53-.36-.1-.67 2.8-1.97 7.4-1.4 8-.73.6.67-.15 5.28-2.78 7.48-.4.34-.78.15-.6-.28.54-1.52 1.86-4.83 1.24-5.6z" stroke="#fff" stroke-opacity="0" fill="#fff"/><use xlink:href="#a" transform="matrix(1,0,0,1,159.89630701940064,94) translate(0 19.555555555555557)"/><use xlink:href="#b" transform="matrix(1,0,0,1,159.89630701940064,94) translate(62.33333333333333 19.555555555555557)"/><path d="M453.15 82a8 8 0 0 1 8-8h836.75a8 8 0 0 1 8 8v52.8a8 8 0 0 1-8 8H461.15a8 8 0 0 1-8-8z" stroke="#000" stroke-opacity="0" stroke-width="2" fill="#fff" fill-opacity="0"/><use xlink:href="#c" transform="matrix(1,0,0,1,457.1465527853436,78) translate(39.465555555555795 41.43555555555553)"/><use xlink:href="#d" transform="matrix(1,0,0,1,457.1465527853436,78) translate(162.99888888888907 41.43555555555553)"/><use xlink:href="#e" transform="matrix(1,0,0,1,457.1465527853436,78) translate(421.3692592592593 41.43555555555553)"/><use xlink:href="#f" transform="matrix(1,0,0,1,457.1465527853436,78) translate(595.7692592592591 41.43555555555553)"/><path d="M453.15 136.98a8 8 0 0 1 8-8h837.7a8 8 0 0 1 8 8v2.85a8 8 0 0 1-8 8h-837.7a8 8 0 0 1-8-8z" stroke="#000" stroke-opacity="0" stroke-width="2" fill="#fff" fill-opacity="0"/><path d="M1691.1 280h120v120h-120V280z" stroke="#fff" stroke-opacity="0" stroke-width="2" fill="#d86613"/><path d="M1787.9 380h-19.7c-.65 0-1.17-.32-1.42-.88l-27.9-58.32h-11.8c-.9 0-1.6-.72-1.6-1.6v-17.6c0-.88.7-1.6 1.6-1.6h24.65c.64 0 1.16.32 1.4.88l27.8 58.32h6.97c.9 0 1.6.72 1.6 1.6v17.6c0 .88-.7 1.6-1.6 1.6zm-18.7-3.2h17.1v-14.4h-6.4c-.64 0-1.15-.32-1.4-.88l-27.8-58.32h-22v14.4h11.2c.63 0 1.14.32 1.46.88z" stroke="#fff" stroke-opacity="0" stroke-width="2" fill="#fff"/><path d="M1735.06 380h-20.78c-.57 0-1.07-.3-1.38-.73-.32-.54-.32-1.12-.07-1.6l21.77-45.46c.25-.58.8-.92 1.42-.92.63 0 1.16.34 1.45.88l10.4 21.43c.25.43.25.92 0 1.4L1736.52 379c-.2.63-.77 1.02-1.44 1.02zm-18.23-3.22h17.24l10.58-22.36-8.6-17.88z" stroke="#fff" stroke-opacity="0" stroke-width="2" fill="#fff"/><use xlink:href="#g" transform="matrix(1,0,0,1,1661.1036929805994,409) translate(42.814814814814824 23.11111111111111)"/><path d="M1011.1 280h120v120h-120V280z" stroke="#fff" stroke-opacity="0" fill="#693cc5"/><path d="M1088.72 378.42c-.37 0-.65-.15-.94-.3-.44-.3-.68-.77-.68-1.3v-73.63c0-.55.3-1.08.77-1.4.5-.3 1.1-.3 1.6-.07l20.8 10.22c.56.23.9.77.9 1.38v56.56c.02.76-.4 1.37-1.1 1.6l-20.8 6.92h-.55zm1.6-72.62v68.78l17.6-5.84v-54.4zM1053.5 378.42h-.5l-20.82-6.92c-.67-.23-1.1-.92-1.08-1.6v-56.57c0-.6.34-1.15.9-1.38l20.8-10.22c.52-.23 1.1-.23 1.6.08.5.3.75.85.75 1.4v73.6c0 .54-.24 1-.67 1.3-.3.24-.6.32-1 .32zm-19.2-9.6l17.6 5.83V305.8l-17.6 8.6z" stroke="#fff" stroke-opacity="0" fill="#fff"/><path d="M1087.1 324h-4.8v-3.2h4.8zm-9.6 0h-4.8v-3.2h4.8zm-9.58 0h-4.8v-3.2h4.8zm-9.6 0h-4.82v-3.2h4.8zM1087.1 359.2h-4.8V356h4.8zm-9.6 0h-4.8V356h4.8zm-9.58 0h-4.8V356h4.8zm-9.6 0h-4.82V356h4.8zM1064.08 345.5l-6-5.13c-.7-.57-.77-1.6-.2-2.26l.18-.17 6-5.13 2.08 2.43-4.58 3.97 4.58 3.92zM1078.14 345.5l-2.08-2.42 4.58-3.88-4.6-3.9 2.1-2.5 6 5.12c.68.57.75 1.6.18 2.26-.06.06-.1.12-.18.17z" stroke="#fff" stroke-opacity="0" fill="#fff"/><path d="M1066.4 348.87l6.36-18.8 3.03 1.03-6.37 18.8-3.03-1.03z" stroke="#fff" stroke-opacity="0" stroke-width=".32" fill="#fff"/><use xlink:href="#h" transform="matrix(1,0,0,1,981.1036929805994,409) translate(5.901234567901241 23.11111111111111)"/><use xlink:href="#i" transform="matrix(1,0,0,1,981.1036929805994,409) translate(126.03086419753087 23.11111111111111)"/><use xlink:href="#j" transform="matrix(1,0,0,1,981.1036929805994,409) translate(30.657407407407412 57.77777777777777)"/><path d="M696.56 300h-33.12L640 323.44v33.12L663.44 380h33.12L720 356.56v-33.12zm20 55.12l-21.44 21.44h-30.24l-21.44-21.44v-30.24l21.44-21.44h30.24l21.44 21.44z" stroke="#fff" stroke-opacity="0" stroke-width="3" fill="#693cc5"/><path d="M667.37 312.62l-13.9 12.14c-.8.5-1.26 1.28-1.3 2.22v26.27c.02 1 .5 1.84 1.35 2.3l13.4 11.8.45.27c.6.22 1.1.33 1.75.33.48 0 .9-.06 1.34-.28l.88-.5v-54.1l-.9-.5c-1.04-.4-2.05-.4-3.07.05zm.46 50.88l-12.2-10.7v-25.37l12.2-10.7zM692.62 312.58c-1-.38-2-.38-3.02 0l-.9.5v54.1l.88.5c.44.2.86.27 1.33.27.65 0 1.18-.1 1.76-.33l13.92-12.13c.8-.5 1.23-1.3 1.25-2.24V327c-.02-1-.5-1.84-1.34-2.3l-13.42-11.78zm11.72 40.23l-12.16 10.7v-46.74l12.16 10.68zM673.04 338.26h3.48v3.48h-3.48v-3.48zM678.26 338.26h3.48v3.48h-3.48v-3.48zM683.48 338.26h3.48v3.48h-3.48v-3.48z" stroke="#fff" stroke-opacity="0" stroke-width="3" fill="#693cc5"/><use xlink:href="#k" transform="matrix(1,0,0,1,610,389) translate(30.71913580246914 23.11111111111111)"/><use xlink:href="#l" transform="matrix(1,0,0,1,610,389) translate(-45.15432098765433 57.77777777777777)"/><path d="M721 340h271.6" stroke="#979ea8" stroke-width="2" fill="none"/><path d="M721.03 341H720v-2h1.03z" stroke="#979ea8" stroke-width=".05" fill="#979ea8"/><path d="M1007.87 340l-14.27 4.63v-9.26z" stroke="#979ea8" stroke-width="2" fill="#979ea8"/><path d="M1170.77 341h-38.67v-2h38.67zm501.83 0h-234.7v-2h234.7z" stroke="#635dff" stroke-width=".05" fill="#635dff"/><path d="M1132.13 341h-1.03v-2h1.03z" fill="#635dff"/><path d="M1132.15 341.02h-1.07v-2.04h1.07zm-1.02-2v1.96h.97v-1.96z" stroke="#635dff" stroke-width=".05" fill="#635dff"/><path d="M1687.87 340l-14.27 4.63v-9.26z" fill="#635dff"/><path d="M1691.1 340l-18.5 6v-12zm-16.5 3.26l10.03-3.26-10.03-3.26z" stroke="#635dff" stroke-width=".05" fill="#635dff"/><use xlink:href="#m" transform="matrix(1,0,0,1,1170.77287856516,325.3333333333333) translate(0 19.555555555555557)"/><path d="M277.84 334.96l-52.44-52.8c-3-2.88-7.68-2.88-10.44 0l-11.52 11.28 13.68 13.68c.84-.36 2.04-.6 3.24-.6 5.04 0 9.12 4.08 9.12 9.12 0 1.2-.24 2.4-.6 3.36l13.32 13.32c.84-.36 2.16-.6 3.24-.6 5.04 0 9.24 4.08 9.24 9.12 0 5.04-4.2 9.24-9.24 9.24s-9.12-4.2-9.12-9.24c0-1.2.24-2.4.6-3.24l-12.48-12.48v32.64c3 1.44 5.04 4.68 5.04 8.04 0 5.04-4.08 9.12-9.12 9.12-5.04 0-9.24-4.08-9.24-9.12 0-3.96 2.4-7.2 6-8.64v-33.24c-3.6-1.08-6-4.68-6-8.52 0-1.2.36-2.4.6-3.24l-13.56-13.68-35.88 36.48c-3 2.88-3 7.68 0 10.32l52.44 52.44c3 3 7.68 3 10.32 0l52.44-52.44c3.36-2.88 3.36-7.68.36-10.32z" stroke="#000" stroke-opacity="0" fill="#0078d7"/><use xlink:href="#n" transform="matrix(1,0,0,1,130,409) translate(69.82438271604939 23.288888888888884)"/><use xlink:href="#o" transform="matrix(1,0,0,1,130,409) translate(19.001234567901264 58.22222222222221)"/><path d="M384.15 344.9h-158.7v-2h158.7zm237.35 0H480.3v-2h141.2z" stroke="#1071e5" stroke-width=".05" fill="#1071e5"/><path d="M225.47 344.9h-1.03v-2h1.03z" fill="#1071e5"/><path d="M225.5 344.93h-1.1v-2.05h1.1zm-1.03-2v1.95h.97v-1.95z" stroke="#1071e5" stroke-width=".05" fill="#1071e5"/><path d="M636.76 343.9l-14.26 4.64v-9.27z" fill="#1071e5"/><path d="M640 343.9l-18.5 6.02V337.9zm-16.5 3.26l10.03-3.26-10.03-3.25z" stroke="#1071e5" stroke-width=".05" fill="#1071e5"/><g><use xlink:href="#p" transform="matrix(1,0,0,1,384.15209876543213,326.57211287434274) translate(0 23.11111111111111)"/></g><defs><path fill="#cc4e00" d="M199 0l-22-63H83L61 0H9l90-248h61L250 0h-51zm-33-102l-36-108c-10 38-24 72-36 108h72" id="q"/><path fill="#cc4e00" d="M275 0h-61l-44-196L126 0H64L0-248h53L97-49l45-199h58l43 199 44-199h52" id="r"/><path fill="#cc4e00" d="M169-182c-1-43-94-46-97-3 18 66 151 10 154 114 3 95-165 93-204 36-6-8-10-19-12-30l50-8c3 46 112 56 116 5-17-69-150-10-154-114-4-87 153-88 188-35 5 8 8 18 10 28" id="s"/><g id="a"><use transform="matrix(0.06790123456790123,0,0,0.06790123456790123,0,0)" xlink:href="#q"/><use transform="matrix(0.06790123456790123,0,0,0.06790123456790123,16.228395061728392,0)" xlink:href="#r"/><use transform="matrix(0.06790123456790123,0,0,0.06790123456790123,39.24691358024691,0)" xlink:href="#s"/></g><path fill="#cc4e00" d="M67-125c0 53 21 87 73 88 37 1 54-22 65-47l45 17C233-25 199 4 140 4 58 4 20-42 15-125 8-235 124-281 211-232c18 10 29 29 36 50l-46 12c-8-25-30-41-62-41-52 0-71 34-72 86" id="t"/><path fill="#cc4e00" d="M25 0v-261h50V0H25" id="u"/><path fill="#cc4e00" d="M110-194c64 0 96 36 96 99 0 64-35 99-97 99-61 0-95-36-95-99 0-62 34-99 96-99zm-1 164c35 0 45-28 45-65 0-40-10-65-43-65-34 0-45 26-45 65 0 36 10 65 43 65" id="v"/><path fill="#cc4e00" d="M85 4C-2 5 27-109 22-190h50c7 57-23 150 33 157 60-5 35-97 40-157h50l1 190h-47c-2-12 1-28-3-38-12 25-28 42-61 42" id="w"/><path fill="#cc4e00" d="M88-194c31-1 46 15 58 34l-1-101h50l1 261h-48c-2-10 0-23-3-31C134-8 116 4 84 4 32 4 16-41 15-95c0-56 19-97 73-99zm17 164c33 0 40-30 41-66 1-37-9-64-41-64s-38 30-39 65c0 43 13 65 39 65" id="x"/><g id="b"><use transform="matrix(0.06790123456790123,0,0,0.06790123456790123,0,0)" xlink:href="#t"/><use transform="matrix(0.06790123456790123,0,0,0.06790123456790123,17.586419753086417,0)" xlink:href="#u"/><use transform="matrix(0.06790123456790123,0,0,0.06790123456790123,24.37654320987654,0)" xlink:href="#v"/><use transform="matrix(0.06790123456790123,0,0,0.06790123456790123,39.24691358024691,0)" xlink:href="#w"/><use transform="matrix(0.06790123456790123,0,0,0.06790123456790123,54.11728395061728,0)" xlink:href="#x"/></g><path fill="#4c535d" d="M199 0l-22-63H83L61 0H9l90-248h61L250 0h-51zm-33-102l-36-108c-10 38-24 72-36 108h72" id="y"/><path fill="#4c535d" d="M275 0h-61l-44-196L126 0H64L0-248h53L97-49l45-199h58l43 199 44-199h52" id="z"/><path fill="#4c535d" d="M169-182c-1-43-94-46-97-3 18 66 151 10 154 114 3 95-165 93-204 36-6-8-10-19-12-30l50-8c3 46 112 56 116 5-17-69-150-10-154-114-4-87 153-88 188-35 5 8 8 18 10 28" id="A"/><g id="c"><use transform="matrix(0.13456790123456783,0,0,0.13456790123456783,0,0)" xlink:href="#y"/><use transform="matrix(0.13456790123456783,0,0,0.13456790123456783,32.161728395061715,0)" xlink:href="#z"/><use transform="matrix(0.13456790123456783,0,0,0.13456790123456783,77.78024691358021,0)" xlink:href="#A"/></g><path fill="#4c535d" d="M185-48c-13 30-37 53-82 52C43 2 14-33 14-96s30-98 90-98c62 0 83 45 84 108H66c0 31 8 55 39 56 18 0 30-7 34-22zm-45-69c5-46-57-63-70-21-2 6-4 13-4 21h74" id="B"/><path fill="#4c535d" d="M135-150c-39-12-60 13-60 57V0H25l-1-190h47c2 13-1 29 3 40 6-28 27-53 61-41v41" id="C"/><path fill="#4c535d" d="M128 0H69L1-190h53L99-40l48-150h52" id="D"/><path fill="#4c535d" d="M25 0v-261h50V0H25" id="E"/><path fill="#4c535d" d="M137-138c1-29-70-34-71-4 15 46 118 7 119 86 1 83-164 76-172 9l43-7c4 19 20 25 44 25 33 8 57-30 24-41C81-84 22-81 20-136c-2-80 154-74 161-7" id="F"/><g id="d"><use transform="matrix(0.13456790123456783,0,0,0.13456790123456783,0,0)" xlink:href="#A"/><use transform="matrix(0.13456790123456783,0,0,0.13456790123456783,32.296296296296276,0)" xlink:href="#B"/><use transform="matrix(0.13456790123456783,0,0,0.13456790123456783,59.209876543209845,0)" xlink:href="#C"/><use transform="matrix(0.13456790123456783,0,0,0.13456790123456783,78.04938271604934,0)" xlink:href="#D"/><use transform="matrix(0.13456790123456783,0,0,0.13456790123456783,104.9629629629629,0)" xlink:href="#B"/><use transform="matrix(0.13456790123456783,0,0,0.13456790123456783,131.87654320987647,0)" xlink:href="#C"/><use transform="matrix(0.13456790123456783,0,0,0.13456790123456783,150.71604938271597,0)" xlink:href="#E"/><use transform="matrix(0.13456790123456783,0,0,0.13456790123456783,164.17283950617275,0)" xlink:href="#B"/><use transform="matrix(0.13456790123456783,0,0,0.13456790123456783,191.08641975308632,0)" xlink:href="#F"/><use transform="matrix(0.13456790123456783,0,0,0.13456790123456783,217.9999999999999,0)" xlink:href="#F"/></g><path fill="#4c535d" d="M67-125c0 54 23 88 75 88 28 0 53-7 68-21v-34h-60v-39h108v91C232-14 192 4 140 4 58 4 20-42 15-125 8-236 126-280 215-234c19 10 29 26 37 47l-47 15c-11-23-29-39-63-39-53 1-75 33-75 86" id="G"/><path fill="#4c535d" d="M25-224v-37h50v37H25zM25 0v-190h50V0H25" id="H"/><path fill="#4c535d" d="M115-3C79 11 28 4 28-45v-112H4v-33h27l15-45h31v45h36v33H77v99c-1 23 16 31 38 25v30" id="I"/><path fill="#4c535d" d="M186 0v-106H76V0H24v-248h52v99h110v-99h50V0h-50" id="J"/><path fill="#4c535d" d="M85 4C-2 5 27-109 22-190h50c7 57-23 150 33 157 60-5 35-97 40-157h50l1 190h-47c-2-12 1-28-3-38-12 25-28 42-61 42" id="K"/><path fill="#4c535d" d="M135-194c52 0 70 43 70 98 0 56-19 99-73 100-30 1-46-15-58-35L72 0H24l1-261h50v104c11-23 29-37 60-37zM114-30c31 0 40-27 40-66 0-37-7-63-39-63s-41 28-41 65c0 36 8 64 40 64" id="L"/><g id="e"><use transform="matrix(0.13456790123456783,0,0,0.13456790123456783,0,0)" xlink:href="#G"/><use transform="matrix(0.13456790123456783,0,0,0.13456790123456783,37.67901234567899,0)" xlink:href="#H"/><use transform="matrix(0.13456790123456783,0,0,0.13456790123456783,51.135802469135776,0)" xlink:href="#I"/><use transform="matrix(0.13456790123456783,0,0,0.13456790123456783,67.14938271604935,0)" xlink:href="#J"/><use transform="matrix(0.13456790123456783,0,0,0.13456790123456783,102.00246913580241,0)" xlink:href="#K"/><use transform="matrix(0.13456790123456783,0,0,0.13456790123456783,131.47283950617276,0)" xlink:href="#L"/></g><path fill="#4c535d" d="M114-157C55-157 80-60 75 0H25v-261h50l-1 109c12-26 28-41 61-42 86-1 58 113 63 194h-50c-7-57 23-157-34-157" id="M"/><path fill="#4c535d" d="M110-194c64 0 96 36 96 99 0 64-35 99-97 99-61 0-95-36-95-99 0-62 34-99 96-99zm-1 164c35 0 45-28 45-65 0-40-10-65-43-65-34 0-45 26-45 65 0 36 10 65 43 65" id="N"/><path fill="#4c535d" d="M147 0L96-86 75-71V0H25v-261h50v150l67-79h53l-66 74L201 0h-54" id="O"/><g id="f"><use transform="matrix(0.13456790123456783,0,0,0.13456790123456783,0,0)" xlink:href="#z"/><use transform="matrix(0.13456790123456783,0,0,0.13456790123456783,44.67654320987652,0)" xlink:href="#B"/><use transform="matrix(0.13456790123456783,0,0,0.13456790123456783,71.59012345679008,0)" xlink:href="#L"/><use transform="matrix(0.13456790123456783,0,0,0.13456790123456783,101.06049382716043,0)" xlink:href="#M"/><use transform="matrix(0.13456790123456783,0,0,0.13456790123456783,130.53086419753078,0)" xlink:href="#N"/><use transform="matrix(0.13456790123456783,0,0,0.13456790123456783,160.00123456790112,0)" xlink:href="#N"/><use transform="matrix(0.13456790123456783,0,0,0.13456790123456783,189.47160493827147,0)" xlink:href="#O"/></g><path fill="#cc4e00" d="M135-194c53 0 70 44 70 98 0 56-19 98-73 100-31 1-45-17-59-34 3 33 2 69 2 105H25l-1-265h48c2 10 0 23 3 31 11-24 29-35 60-35zM114-30c33 0 39-31 40-66 0-38-9-64-40-64-56 0-55 130 0 130" id="P"/><path fill="#cc4e00" d="M133-34C117-15 103 5 69 4 32 3 11-16 11-54c-1-60 55-63 116-61 1-26-3-47-28-47-18 1-26 9-28 27l-52-2c7-38 36-58 82-57s74 22 75 68l1 82c-1 14 12 18 25 15v27c-30 8-71 5-69-32zm-48 3c29 0 43-24 42-57-32 0-66-3-65 30 0 17 8 27 23 27" id="Q"/><path fill="#cc4e00" d="M115-3C79 11 28 4 28-45v-112H4v-33h27l15-45h31v45h36v33H77v99c-1 23 16 31 38 25v30" id="R"/><path fill="#cc4e00" d="M185-48c-13 30-37 53-82 52C43 2 14-33 14-96s30-98 90-98c62 0 83 45 84 108H66c0 31 8 55 39 56 18 0 30-7 34-22zm-45-69c5-46-57-63-70-21-2 6-4 13-4 21h74" id="S"/><g id="g"><use transform="matrix(0.08024691358024691,0,0,0.08024691358024691,0,0)" xlink:href="#w"/><use transform="matrix(0.08024691358024691,0,0,0.08024691358024691,17.574074074074073,0)" xlink:href="#P"/><use transform="matrix(0.08024691358024691,0,0,0.08024691358024691,35.148148148148145,0)" xlink:href="#x"/><use transform="matrix(0.08024691358024691,0,0,0.08024691358024691,52.72222222222221,0)" xlink:href="#Q"/><use transform="matrix(0.08024691358024691,0,0,0.08024691358024691,68.7716049382716,0)" xlink:href="#R"/><use transform="matrix(0.08024691358024691,0,0,0.08024691358024691,78.32098765432097,0)" xlink:href="#S"/></g><path fill="#635dff" d="M199 0l-22-63H83L61 0H9l90-248h61L250 0h-51zm-33-102l-36-108c-10 38-24 72-36 108h72" id="T"/><path fill="#635dff" d="M220-157c-53 9-28 100-34 157h-49v-107c1-27-5-49-29-50C55-147 81-57 75 0H25l-1-190h47c2 12-1 28 3 38 10-53 101-56 108 0 13-22 24-43 59-42 82 1 51 116 57 194h-49v-107c-1-25-5-48-29-50" id="U"/><path fill="#635dff" d="M133-34C117-15 103 5 69 4 32 3 11-16 11-54c-1-60 55-63 116-61 1-26-3-47-28-47-18 1-26 9-28 27l-52-2c7-38 36-58 82-57s74 22 75 68l1 82c-1 14 12 18 25 15v27c-30 8-71 5-69-32zm-48 3c29 0 43-24 42-57-32 0-66-3-65 30 0 17 8 27 23 27" id="V"/><path fill="#635dff" d="M12 0v-35l95-120H19v-35h142v35L67-36h103V0H12" id="W"/><path fill="#635dff" d="M110-194c64 0 96 36 96 99 0 64-35 99-97 99-61 0-95-36-95-99 0-62 34-99 96-99zm-1 164c35 0 45-28 45-65 0-40-10-65-43-65-34 0-45 26-45 65 0 36 10 65 43 65" id="X"/><path fill="#635dff" d="M135-194c87-1 58 113 63 194h-50c-7-57 23-157-34-157-59 0-34 97-39 157H25l-1-190h47c2 12-1 28 3 38 12-26 28-41 61-42" id="Y"/><g id="h"><use transform="matrix(0.08024691358024691,0,0,0.08024691358024691,0,0)" xlink:href="#T"/><use transform="matrix(0.08024691358024691,0,0,0.08024691358024691,20.78395061728395,0)" xlink:href="#U"/><use transform="matrix(0.08024691358024691,0,0,0.08024691358024691,46.46296296296296,0)" xlink:href="#V"/><use transform="matrix(0.08024691358024691,0,0,0.08024691358024691,62.51234567901234,0)" xlink:href="#W"/><use transform="matrix(0.08024691358024691,0,0,0.08024691358024691,76.95679012345678,0)" xlink:href="#X"/><use transform="matrix(0.08024691358024691,0,0,0.08024691358024691,94.53086419753086,0)" xlink:href="#Y"/></g><path fill="#635dff" d="M24-248c93 1 206-16 204 79-1 75-69 88-152 82V0H24v-248zm52 121c47 0 100 7 100-41 0-47-54-39-100-39v80" id="Z"/><path fill="#635dff" d="M24 0v-248h52V0H24" id="aa"/><g id="i"><use transform="matrix(0.08024691358024691,0,0,0.08024691358024691,0,0)" xlink:href="#T"/><use transform="matrix(0.08024691358024691,0,0,0.08024691358024691,20.78395061728395,0)" xlink:href="#Z"/><use transform="matrix(0.08024691358024691,0,0,0.08024691358024691,40.04320987654321,0)" xlink:href="#aa"/></g><path fill="#635dff" d="M67-125c0 54 23 88 75 88 28 0 53-7 68-21v-34h-60v-39h108v91C232-14 192 4 140 4 58 4 20-42 15-125 8-236 126-280 215-234c19 10 29 26 37 47l-47 15c-11-23-29-39-63-39-53 1-75 33-75 86" id="ab"/><path fill="#635dff" d="M115-3C79 11 28 4 28-45v-112H4v-33h27l15-45h31v45h36v33H77v99c-1 23 16 31 38 25v30" id="ac"/><path fill="#635dff" d="M185-48c-13 30-37 53-82 52C43 2 14-33 14-96s30-98 90-98c62 0 83 45 84 108H66c0 31 8 55 39 56 18 0 30-7 34-22zm-45-69c5-46-57-63-70-21-2 6-4 13-4 21h74" id="ad"/><path fill="#635dff" d="M231 0h-52l-39-155L100 0H48L-1-190h46L77-45c9-52 24-97 36-145h53l37 145 32-145h46" id="ae"/><path fill="#635dff" d="M123 10C108 53 80 86 19 72V37c35 8 53-11 59-39L3-190h52l48 148c12-52 28-100 44-148h51" id="af"/><g id="j"><use transform="matrix(0.08024691358024691,0,0,0.08024691358024691,0,0)" xlink:href="#ab"/><use transform="matrix(0.08024691358024691,0,0,0.08024691358024691,22.469135802469136,0)" xlink:href="#V"/><use transform="matrix(0.08024691358024691,0,0,0.08024691358024691,38.51851851851852,0)" xlink:href="#ac"/><use transform="matrix(0.08024691358024691,0,0,0.08024691358024691,48.0679012345679,0)" xlink:href="#ad"/><use transform="matrix(0.08024691358024691,0,0,0.08024691358024691,64.11728395061728,0)" xlink:href="#ae"/><use transform="matrix(0.08024691358024691,0,0,0.08024691358024691,86.58641975308642,0)" xlink:href="#V"/><use transform="matrix(0.08024691358024691,0,0,0.08024691358024691,102.6358024691358,0)" xlink:href="#af"/></g><path fill="#6f7681" d="M24-248c93 1 206-16 204 79-1 75-69 88-152 82V0H24v-248zm52 121c47 0 100 7 100-41 0-47-54-39-100-39v80" id="ag"/><path fill="#6f7681" d="M140-251c80 0 125 45 125 126S219 4 139 4C58 4 15-44 15-125s44-126 125-126zm-1 214c52 0 73-35 73-88 0-50-21-86-72-86-52 0-73 35-73 86s22 88 72 88" id="ah"/><path fill="#6f7681" d="M169-182c-1-43-94-46-97-3 18 66 151 10 154 114 3 95-165 93-204 36-6-8-10-19-12-30l50-8c3 46 112 56 116 5-17-69-150-10-154-114-4-87 153-88 188-35 5 8 8 18 10 28" id="ai"/><path fill="#6f7681" d="M136-208V0H84v-208H4v-40h212v40h-80" id="aj"/><g id="k"><use transform="matrix(0.08024691358024691,0,0,0.08024691358024691,0,0)" xlink:href="#ag"/><use transform="matrix(0.08024691358024691,0,0,0.08024691358024691,19.25925925925926,0)" xlink:href="#ah"/><use transform="matrix(0.08024691358024691,0,0,0.08024691358024691,41.72839506172839,0)" xlink:href="#ai"/><use transform="matrix(0.08024691358024691,0,0,0.08024691358024691,60.98765432098765,0)" xlink:href="#aj"/></g><path fill="#6f7681" d="M4 7l51-268h42L46 7H4" id="ak"/><path fill="#6f7681" d="M195-6C206 82 75 100 31 46c-4-6-6-13-8-21l49-6c3 16 16 24 34 25 40 0 42-37 40-79-11 22-30 35-61 35-53 0-70-43-70-97 0-56 18-96 73-97 30 0 46 14 59 34l2-30h47zm-90-29c32 0 41-27 41-63 0-35-9-62-40-62-32 0-39 29-40 63 0 36 9 62 39 62" id="al"/><path fill="#6f7681" d="M25-224v-37h50v37H25zM25 0v-190h50V0H25" id="am"/><path fill="#6f7681" d="M115-3C79 11 28 4 28-45v-112H4v-33h27l15-45h31v45h36v33H77v99c-1 23 16 31 38 25v30" id="an"/><path fill="#6f7681" d="M114-157C55-157 80-60 75 0H25v-261h50l-1 109c12-26 28-41 61-42 86-1 58 113 63 194h-50c-7-57 23-157-34-157" id="ao"/><path fill="#6f7681" d="M85 4C-2 5 27-109 22-190h50c7 57-23 150 33 157 60-5 35-97 40-157h50l1 190h-47c-2-12 1-28-3-38-12 25-28 42-61 42" id="ap"/><path fill="#6f7681" d="M135-194c52 0 70 43 70 98 0 56-19 99-73 100-30 1-46-15-58-35L72 0H24l1-261h50v104c11-23 29-37 60-37zM114-30c31 0 40-27 40-66 0-37-7-63-39-63s-41 28-41 65c0 36 8 64 40 64" id="aq"/><path fill="#6f7681" d="M14-72v-43h91v43H14" id="ar"/><path fill="#6f7681" d="M231 0h-52l-39-155L100 0H48L-1-190h46L77-45c9-52 24-97 36-145h53l37 145 32-145h46" id="as"/><path fill="#6f7681" d="M185-48c-13 30-37 53-82 52C43 2 14-33 14-96s30-98 90-98c62 0 83 45 84 108H66c0 31 8 55 39 56 18 0 30-7 34-22zm-45-69c5-46-57-63-70-21-2 6-4 13-4 21h74" id="at"/><path fill="#6f7681" d="M110-194c64 0 96 36 96 99 0 64-35 99-97 99-61 0-95-36-95-99 0-62 34-99 96-99zm-1 164c35 0 45-28 45-65 0-40-10-65-43-65-34 0-45 26-45 65 0 36 10 65 43 65" id="au"/><path fill="#6f7681" d="M147 0L96-86 75-71V0H25v-261h50v150l67-79h53l-66 74L201 0h-54" id="av"/><g id="l"><use transform="matrix(0.08024691358024691,0,0,0.08024691358024691,0,0)" xlink:href="#ak"/><use transform="matrix(0.08024691358024691,0,0,0.08024691358024691,8.024691358024691,0)" xlink:href="#al"/><use transform="matrix(0.08024691358024691,0,0,0.08024691358024691,25.598765432098762,0)" xlink:href="#am"/><use transform="matrix(0.08024691358024691,0,0,0.08024691358024691,33.623456790123456,0)" xlink:href="#an"/><use transform="matrix(0.08024691358024691,0,0,0.08024691358024691,43.172839506172835,0)" xlink:href="#ao"/><use transform="matrix(0.08024691358024691,0,0,0.08024691358024691,60.74691358024691,0)" xlink:href="#ap"/><use transform="matrix(0.08024691358024691,0,0,0.08024691358024691,78.32098765432099,0)" xlink:href="#aq"/><use transform="matrix(0.08024691358024691,0,0,0.08024691358024691,95.89506172839506,0)" xlink:href="#ar"/><use transform="matrix(0.08024691358024691,0,0,0.08024691358024691,105.44444444444444,0)" xlink:href="#as"/><use transform="matrix(0.08024691358024691,0,0,0.08024691358024691,127.9135802469136,0)" xlink:href="#at"/><use transform="matrix(0.08024691358024691,0,0,0.08024691358024691,143.96296296296296,0)" xlink:href="#aq"/><use transform="matrix(0.08024691358024691,0,0,0.08024691358024691,161.53703703703704,0)" xlink:href="#ao"/><use transform="matrix(0.08024691358024691,0,0,0.08024691358024691,179.11111111111111,0)" xlink:href="#au"/><use transform="matrix(0.08024691358024691,0,0,0.08024691358024691,196.68518518518516,0)" xlink:href="#au"/><use transform="matrix(0.08024691358024691,0,0,0.08024691358024691,214.2592592592593,0)" xlink:href="#av"/></g><path fill="#635dff" d="M147 0H94L2-248h55l64 206c17-72 42-137 63-206h54" id="aw"/><path fill="#635dff" d="M182-182c0 78-84 86-111 141h115V0H12c-6-101 99-100 120-180 1-22-12-31-33-32-23 0-32 14-35 34l-49-3c5-45 32-70 84-70 51 0 83 22 83 69" id="ax"/><path fill="#635dff" d="M240-174c0 40-23 61-54 70L253 0h-59l-57-94H76V0H24v-248c93 4 217-23 216 74zM76-134c48-2 112 12 112-38 0-48-66-32-112-35v73" id="ay"/><path fill="#635dff" d="M84 4C32 4 15-41 15-95c0-55 18-99 73-99 29 0 47 12 58 34l2-30h48l-1 265h-49V-32C136-9 114 4 84 4zm21-34c32 0 41-29 41-66 0-36-9-64-40-64-33 0-39 30-40 65 0 43 13 65 39 65" id="az"/><path fill="#635dff" d="M85 4C-2 5 27-109 22-190h50c7 57-23 150 33 157 60-5 35-97 40-157h50l1 190h-47c-2-12 1-28-3-38-12 25-28 42-61 42" id="aA"/><path fill="#635dff" d="M137-138c1-29-70-34-71-4 15 46 118 7 119 86 1 83-164 76-172 9l43-7c4 19 20 25 44 25 33 8 57-30 24-41C81-84 22-81 20-136c-2-80 154-74 161-7" id="aB"/><g id="m"><use transform="matrix(0.06790123456790123,0,0,0.06790123456790123,0,0)" xlink:href="#T"/><use transform="matrix(0.06790123456790123,0,0,0.06790123456790123,17.586419753086417,0)" xlink:href="#Z"/><use transform="matrix(0.06790123456790123,0,0,0.06790123456790123,33.88271604938271,0)" xlink:href="#aa"/><use transform="matrix(0.06790123456790123,0,0,0.06790123456790123,40.672839506172835,0)" xlink:href="#ab"/><use transform="matrix(0.06790123456790123,0,0,0.06790123456790123,59.685185185185176,0)" xlink:href="#V"/><use transform="matrix(0.06790123456790123,0,0,0.06790123456790123,73.26543209876542,0)" xlink:href="#ac"/><use transform="matrix(0.06790123456790123,0,0,0.06790123456790123,81.34567901234567,0)" xlink:href="#ad"/><use transform="matrix(0.06790123456790123,0,0,0.06790123456790123,94.92592592592592,0)" xlink:href="#ae"/><use transform="matrix(0.06790123456790123,0,0,0.06790123456790123,113.93827160493827,0)" xlink:href="#V"/><use transform="matrix(0.06790123456790123,0,0,0.06790123456790123,127.5185185185185,0)" xlink:href="#af"/><use transform="matrix(0.06790123456790123,0,0,0.06790123456790123,141.09876543209876,0)" xlink:href="#aw"/><use transform="matrix(0.06790123456790123,0,0,0.06790123456790123,157.39506172839506,0)" xlink:href="#ax"/><use transform="matrix(0.06790123456790123,0,0,0.06790123456790123,170.97530864197532,0)" xlink:href="#ay"/><use transform="matrix(0.06790123456790123,0,0,0.06790123456790123,188.56172839506172,0)" xlink:href="#ad"/><use transform="matrix(0.06790123456790123,0,0,0.06790123456790123,202.14197530864197,0)" xlink:href="#az"/><use transform="matrix(0.06790123456790123,0,0,0.06790123456790123,217.01234567901236,0)" xlink:href="#aA"/><use transform="matrix(0.06790123456790123,0,0,0.06790123456790123,231.88271604938274,0)" xlink:href="#ad"/><use transform="matrix(0.06790123456790123,0,0,0.06790123456790123,245.462962962963,0)" xlink:href="#aB"/><use transform="matrix(0.06790123456790123,0,0,0.06790123456790123,259.04320987654324,0)" xlink:href="#ac"/></g><path fill="#3a414a" d="M67-125c0 54 23 88 75 88 28 0 53-7 68-21v-34h-60v-39h108v91C232-14 192 4 140 4 58 4 20-42 15-125 8-236 126-280 215-234c19 10 29 26 37 47l-47 15c-11-23-29-39-63-39-53 1-75 33-75 86" id="aC"/><path fill="#3a414a" d="M25-224v-37h50v37H25zM25 0v-190h50V0H25" id="aD"/><path fill="#3a414a" d="M115-3C79 11 28 4 28-45v-112H4v-33h27l15-45h31v45h36v33H77v99c-1 23 16 31 38 25v30" id="aE"/><g id="n"><use transform="matrix(0.08086419753086417,0,0,0.08086419753086417,0,0)" xlink:href="#aC"/><use transform="matrix(0.08086419753086417,0,0,0.08086419753086417,22.641975308641968,0)" xlink:href="#aD"/><use transform="matrix(0.08086419753086417,0,0,0.08086419753086417,30.728395061728385,0)" xlink:href="#aE"/></g><path fill="#3a414a" d="M135-150c-39-12-60 13-60 57V0H25l-1-190h47c2 13-1 29 3 40 6-28 27-53 61-41v41" id="aF"/><path fill="#3a414a" d="M185-48c-13 30-37 53-82 52C43 2 14-33 14-96s30-98 90-98c62 0 83 45 84 108H66c0 31 8 55 39 56 18 0 30-7 34-22zm-45-69c5-46-57-63-70-21-2 6-4 13-4 21h74" id="aG"/><path fill="#3a414a" d="M135-194c53 0 70 44 70 98 0 56-19 98-73 100-31 1-45-17-59-34 3 33 2 69 2 105H25l-1-265h48c2 10 0 23 3 31 11-24 29-35 60-35zM114-30c33 0 39-31 40-66 0-38-9-64-40-64-56 0-55 130 0 130" id="aH"/><path fill="#3a414a" d="M110-194c64 0 96 36 96 99 0 64-35 99-97 99-61 0-95-36-95-99 0-62 34-99 96-99zm-1 164c35 0 45-28 45-65 0-40-10-65-43-65-34 0-45 26-45 65 0 36 10 65 43 65" id="aI"/><path fill="#3a414a" d="M137-138c1-29-70-34-71-4 15 46 118 7 119 86 1 83-164 76-172 9l43-7c4 19 20 25 44 25 33 8 57-30 24-41C81-84 22-81 20-136c-2-80 154-74 161-7" id="aJ"/><path fill="#3a414a" d="M123 10C108 53 80 86 19 72V37c35 8 53-11 59-39L3-190h52l48 148c12-52 28-100 44-148h51" id="aK"/><g id="o"><use transform="matrix(0.08086419753086417,0,0,0.08086419753086417,0,0)" xlink:href="#aF"/><use transform="matrix(0.08086419753086417,0,0,0.08086419753086417,11.320987654320984,0)" xlink:href="#aG"/><use transform="matrix(0.08086419753086417,0,0,0.08086419753086417,27.49382716049382,0)" xlink:href="#aH"/><use transform="matrix(0.08086419753086417,0,0,0.08086419753086417,45.20308641975307,0)" xlink:href="#aI"/><use transform="matrix(0.08086419753086417,0,0,0.08086419753086417,62.91234567901232,0)" xlink:href="#aJ"/><use transform="matrix(0.08086419753086417,0,0,0.08086419753086417,79.08518518518515,0)" xlink:href="#aD"/><use transform="matrix(0.08086419753086417,0,0,0.08086419753086417,87.17160493827157,0)" xlink:href="#aE"/><use transform="matrix(0.08086419753086417,0,0,0.08086419753086417,96.79444444444441,0)" xlink:href="#aI"/><use transform="matrix(0.08086419753086417,0,0,0.08086419753086417,114.50370370370366,0)" xlink:href="#aF"/><use transform="matrix(0.08086419753086417,0,0,0.08086419753086417,125.82469135802465,0)" xlink:href="#aK"/></g><path fill="#1071e5" d="M24 0v-248h195v40H76v63h132v40H76v65h150V0H24" id="aL"/><path fill="#1071e5" d="M147 0H94L2-248h55l64 206c17-72 42-137 63-206h54" id="aM"/><path fill="#1071e5" d="M175 0L67-191c6 58 2 128 3 191H24v-248h59L193-55c-6-58-2-129-3-193h46V0h-61" id="aN"/><path fill="#1071e5" d="M136-208V0H84v-208H4v-40h212v40h-80" id="aO"/><g id="p"><use transform="matrix(0.08024691358024691,0,0,0.08024691358024691,0,0)" xlink:href="#aL"/><use transform="matrix(0.08024691358024691,0,0,0.08024691358024691,19.25925925925926,0)" xlink:href="#aM"/><use transform="matrix(0.08024691358024691,0,0,0.08024691358024691,38.51851851851852,0)" xlink:href="#aL"/><use transform="matrix(0.08024691358024691,0,0,0.08024691358024691,57.77777777777777,0)" xlink:href="#aN"/><use transform="matrix(0.08024691358024691,0,0,0.08024691358024691,78.56172839506172,0)" xlink:href="#aO"/></g></defs></g></svg>